<svg width="674" height="681" viewBox="0 0 674 681" fill="none" xmlns="http://www.w3.org/2000/svg">
<circle cx="337" cy="343" r="336.5" fill="white" stroke="#A8B7DD"/>
<path d="M610.342 420.178C604.148 419.169 575.757 430.731 563.785 440.566C551.815 450.402 529.932 471.241 504.514 488.716C479.095 506.191 450.689 520.245 435.571 522.525C435.571 522.525 434.412 523.339 436.774 524.751C439.136 526.163 440.914 528.605 437.19 531.348C433.466 534.091 419.443 541.514 405.924 551.098C392.404 560.681 379.863 584.827 380.464 606.347C381.066 627.866 388.138 624.079 388.657 623.748C389.175 623.416 385.906 621.27 386.54 616.776C387.175 612.282 393.047 601.012 396.007 593.645C398.968 586.278 398.516 580.653 398.516 580.653C398.516 580.653 403.039 581.562 407.432 578.609C411.826 575.657 417.105 571.92 420.461 574.887C423.817 577.855 420.368 570.055 415.781 569.846C415.781 569.846 428.427 569.07 441.405 568.813C454.383 568.555 474.195 574.083 500.951 566.705C527.707 559.327 568.348 511.613 576.956 500.056C585.564 488.498 604.171 461.501 610.697 447.257C617.225 433.012 610.342 420.178 610.342 420.178Z" fill="#A8B7DD"/>
<path d="M610.342 420.178C610.748 420.311 611.127 420.589 611.268 421.004C611.421 421.412 611.377 421.864 611.274 422.278C611.07 423.118 610.668 423.891 610.238 424.635C609.365 426.118 608.309 427.485 607.22 428.814C605.023 431.462 602.632 433.941 600.164 436.335C597.675 438.708 595.129 441.023 592.418 443.152C589.697 445.266 586.816 447.153 583.932 449.021C581.045 450.885 578.138 452.716 575.295 454.638C572.459 456.561 569.666 458.565 567.117 460.843C565.832 461.969 564.649 463.203 563.569 464.515C563.278 464.827 563.061 465.194 562.812 465.537C562.576 465.887 562.316 466.228 562.097 466.585C561.689 467.312 561.33 468.073 561.125 468.888C560.659 470.504 560.601 472.218 560.68 473.912C560.765 475.611 561.006 477.305 561.29 478.992C561.852 482.371 562.583 485.734 563.105 489.14C563.642 492.541 563.967 495.991 563.89 499.447C563.836 501.174 563.677 502.898 563.408 504.606C563.127 506.312 562.703 507.992 562.184 509.641C561.655 511.291 560.897 512.845 560.207 514.427C559.85 515.212 559.399 515.949 559 516.713C558.583 517.467 558.198 518.241 557.717 518.956C556.8 520.414 555.899 521.883 554.873 523.267C554.368 523.964 553.894 524.683 553.364 525.361L551.78 527.399C550.738 528.769 549.585 530.049 548.494 531.377C547.339 532.651 546.224 533.961 545.03 535.199C540.296 540.186 535.284 544.91 529.968 549.265C535.224 544.839 540.168 540.05 544.825 535.009C549.5 529.988 553.821 524.609 557.392 518.759C557.867 518.045 558.244 517.277 558.655 516.526C559.048 515.766 559.492 515.03 559.843 514.251C560.518 512.681 561.263 511.138 561.776 509.509C562.281 507.878 562.692 506.219 562.961 504.533C563.219 502.846 563.368 501.143 563.413 499.435C563.474 496.018 563.136 492.602 562.587 489.221C562.053 485.836 561.304 482.484 560.727 479.087C560.449 477.386 560.213 475.672 560.134 473.937C560.062 472.209 560.126 470.44 560.623 468.746C560.842 467.893 561.222 467.087 561.659 466.322C561.89 465.949 562.155 465.605 562.4 465.246C562.657 464.895 562.883 464.519 563.18 464.203C564.289 462.868 565.497 461.621 566.801 460.489C569.388 458.199 572.202 456.199 575.057 454.283C577.917 452.37 580.834 450.552 583.727 448.703C586.618 446.85 589.5 444.979 592.216 442.89C594.92 440.789 597.472 438.481 599.973 436.134C602.467 433.778 604.886 431.336 607.113 428.725C608.217 427.414 609.288 426.065 610.178 424.599C610.617 423.865 611.027 423.1 611.24 422.271C611.349 421.861 611.397 421.414 611.252 421.011C611.118 420.599 610.746 420.316 610.342 420.178Z" fill="white"/>
<path d="M571.649 456.913C570.553 457.883 569.525 458.933 568.682 460.131C567.856 461.336 567.188 462.645 566.704 464.023C565.778 466.8 565.542 469.758 565.666 472.672C565.775 475.594 566.18 478.498 566.685 481.377C567.17 484.261 568.09 487.048 568.784 489.895C569.483 492.738 569.968 495.657 569.935 498.598C569.908 501.541 569.282 504.452 568.275 507.199C568.002 507.879 567.758 508.573 567.459 509.241L566.457 511.198C566.283 511.522 566.136 511.859 565.942 512.169L565.352 513.097L564.171 514.95C563.302 516.129 562.401 517.285 561.5 518.437L558.568 521.707C562.56 517.449 566.117 512.65 568.156 507.156C569.149 504.416 569.76 501.521 569.776 498.596C569.798 495.673 569.304 492.773 568.599 489.941C567.917 487.1 567.007 484.304 566.529 481.404C566.034 478.518 565.639 475.608 565.539 472.677C565.427 469.754 565.672 466.78 566.617 463.993C567.117 462.612 567.804 461.304 568.644 460.103C569.502 458.912 570.543 457.871 571.649 456.913Z" fill="white"/>
<path d="M575.718 501.681C576.544 499.69 577.096 497.591 577.272 495.446C577.473 493.303 577.235 491.143 576.824 489.038C575.994 484.808 574.261 480.832 573.041 476.694C572.418 474.624 572.091 472.479 571.813 470.344C571.539 468.208 571.361 466.045 571.503 463.887C571.666 461.736 572.189 459.591 573.217 457.684C574.235 455.77 575.769 454.173 577.511 452.912C575.787 454.198 574.283 455.814 573.299 457.727C572.291 459.627 571.78 461.757 571.629 463.895C571.498 466.041 571.687 468.193 571.971 470.324C572.259 472.459 572.596 474.584 573.224 476.642C574.418 480.77 576.135 484.762 576.948 489.013C577.349 491.128 577.581 493.301 577.364 495.454C577.157 497.606 576.572 499.702 575.718 501.681Z" fill="white"/>
<path d="M582.672 492.161C583.583 490.534 584.172 488.735 584.303 486.882C584.456 485.031 584.176 483.163 583.657 481.383C582.639 477.801 580.862 474.501 579.396 471.075C578.667 469.362 578.036 467.591 577.618 465.772C577.182 463.96 576.868 462.109 576.807 460.241C576.754 458.382 576.925 456.473 577.656 454.741C578.342 452.991 579.654 451.541 581.214 450.534C579.67 451.568 578.393 453.032 577.742 454.776C577.031 456.497 576.87 458.389 576.933 460.236C577.005 462.092 577.327 463.931 577.773 465.734C578.198 467.548 578.835 469.293 579.572 471.002C581.012 474.424 582.775 477.742 583.779 481.349C584.289 483.142 584.563 485.025 584.395 486.889C584.232 488.753 583.609 490.551 582.672 492.161Z" fill="white"/>
<path d="M589.391 482.473C589.987 480.994 590.252 479.391 590.108 477.812C589.984 476.231 589.503 474.697 588.887 473.237C587.623 470.321 585.893 467.628 584.601 464.706C583.954 463.248 583.43 461.726 583.09 460.168C582.733 458.615 582.458 457.033 582.426 455.434C582.379 453.84 582.66 452.212 583.391 450.782C584.131 449.353 585.269 448.195 586.464 447.152C585.289 448.218 584.177 449.398 583.474 450.824C582.764 452.244 582.496 453.851 582.553 455.431C582.595 457.017 582.879 458.588 583.245 460.131C583.594 461.683 584.122 463.182 584.775 464.628C586.038 467.543 587.752 470.249 589.004 473.188C589.612 474.66 590.09 476.208 590.2 477.805C590.313 479.401 590.016 481.007 589.391 482.473Z" fill="white"/>
<path d="M594.611 474.658C595.22 473.375 595.505 471.957 595.431 470.551C595.383 469.139 594.998 467.76 594.48 466.45C593.457 463.813 591.959 461.394 590.702 458.852C589.431 456.316 588.579 453.54 588.43 450.695C588.357 449.279 588.563 447.821 589.196 446.538C589.829 445.252 590.842 444.211 591.936 443.322C590.861 444.235 589.876 445.296 589.279 446.578C588.667 447.85 588.473 449.286 588.557 450.689C588.628 452.098 588.92 453.488 589.294 454.848C589.682 456.205 590.252 457.5 590.873 458.769C592.105 461.31 593.589 463.745 594.598 466.405C595.108 467.726 595.489 469.121 595.524 470.547C595.567 471.97 595.247 473.39 594.611 474.658Z" fill="white"/>
<path d="M599.833 466.52C600.618 464.111 600.735 461.458 599.902 459.056C599.133 456.635 597.725 454.488 596.668 452.17C596.155 451.002 595.749 449.78 595.545 448.515C595.35 447.247 595.383 445.965 595.495 444.696C595.753 442.18 596.616 439.614 598.414 437.785C597.532 438.702 596.907 439.838 596.464 441.019C596.01 442.201 595.738 443.448 595.621 444.708C595.521 445.965 595.498 447.246 595.701 448.491C595.913 449.735 596.324 450.938 596.84 452.092C597.87 454.402 599.267 456.569 600.022 459.018C600.859 461.449 600.69 464.136 599.833 466.52Z" fill="white"/>
<path d="M604.624 458.632C604.929 456.487 604.931 454.295 604.503 452.178C604.056 450.058 603.099 448.102 602.319 446.076C601.949 445.055 601.631 444.008 601.447 442.934C601.279 441.857 601.191 440.772 601.193 439.685C601.199 438.598 601.286 437.509 601.517 436.444C601.775 435.397 602.129 434.328 602.842 433.501C602.154 434.347 601.835 435.419 601.608 436.464C601.392 437.522 601.315 438.604 601.319 439.684C601.327 440.764 601.427 441.843 601.603 442.906C601.795 443.967 602.121 444.999 602.498 446.01C603.252 448.029 604.198 450.01 604.626 452.154C605.052 454.291 605.002 456.5 604.624 458.632Z" fill="white"/>
<path d="M609.691 449.362C609.796 447.575 609.637 445.763 609.07 444.069C608.525 442.363 607.561 440.839 606.739 439.243C605.924 437.643 605.36 435.879 605.313 434.069C605.247 432.282 605.71 430.394 606.93 429.052C605.772 430.44 605.369 432.304 605.44 434.065C605.507 435.853 606.083 437.58 606.909 439.158C607.707 440.752 608.66 442.301 609.19 444.03C609.757 445.746 609.87 447.581 609.691 449.362Z" fill="white"/>
<path d="M612.513 442.17C612.653 440.8 612.587 439.416 612.27 438.085C611.954 436.751 611.385 435.494 610.781 434.262C610.197 433.019 609.58 431.773 609.217 430.433C608.847 429.095 608.821 427.672 609.124 426.326C608.894 427.686 608.967 429.083 609.339 430.399C609.717 431.717 610.35 432.943 610.952 434.18C611.54 435.423 612.095 436.702 612.392 438.055C612.707 439.405 612.727 440.811 612.513 442.17Z" fill="white"/>
<path d="M560.028 488.069C559.111 487.917 558.206 487.947 557.349 488.123C556.497 488.315 555.69 488.646 554.979 489.151C553.523 490.142 552.324 491.49 551.371 493.078C551.551 492.158 551.975 491.291 552.522 490.519C553.061 489.736 553.766 489.068 554.553 488.52C556.142 487.404 558.371 487.167 560.028 488.069Z" fill="white"/>
<path d="M550.726 490.865C550.922 490.118 551.261 489.413 551.669 488.751C552.078 488.089 552.594 487.486 553.203 486.981C553.824 486.492 554.557 486.132 555.334 485.982C556.113 485.8 556.912 485.937 557.646 486.141C557.257 486.144 556.883 486.046 556.504 486.104L555.944 486.141L555.399 486.267C554.688 486.474 554.021 486.813 553.441 487.279C552.863 487.747 552.363 488.311 551.911 488.915C551.466 489.524 551.068 490.177 550.726 490.865Z" fill="white"/>
<path d="M552.744 490.716C553.548 491.946 555.061 492.336 556.182 491.806C556.741 491.56 557.241 491.073 557.589 490.536C557.922 490.001 557.997 489.299 557.665 488.629C558.267 489.083 558.461 490.048 558.124 490.797C557.805 491.534 557.25 492.139 556.496 492.501C556.117 492.658 555.709 492.759 555.297 492.752C554.889 492.735 554.485 492.65 554.125 492.472C553.403 492.137 552.847 491.455 552.744 490.716Z" fill="white"/>
<path d="M552.631 493.378C554.047 493.799 555.539 493.582 556.801 492.94C557.443 492.63 558.007 492.18 558.559 491.718C558.829 491.478 559.076 491.212 559.338 490.958C559.581 490.688 559.816 490.408 560.072 490.14C559.887 490.457 559.68 490.763 559.482 491.078C559.245 491.361 559.016 491.656 558.763 491.929C558.239 492.458 557.652 492.941 556.973 493.28C556.295 493.612 555.552 493.833 554.795 493.85C554.044 493.874 553.279 493.737 552.631 493.378Z" fill="white"/>
<path d="M553.094 494.816C554.25 494.952 555.399 494.849 556.459 494.47C556.986 494.282 557.501 494.043 557.973 493.729C558.46 493.432 558.887 493.05 559.336 492.673C559.167 492.909 558.991 493.147 558.797 493.368C558.585 493.571 558.385 493.793 558.143 493.968C557.688 494.354 557.143 494.622 556.584 494.83C556.019 495.03 555.421 495.132 554.826 495.128C554.233 495.127 553.637 495.04 553.094 494.816Z" fill="white"/>
<path d="M555.039 490.405C555.219 490.551 555.247 490.815 555.1 490.996C554.954 491.176 554.69 491.205 554.509 491.059C554.328 490.912 554.301 490.647 554.447 490.467C554.593 490.286 554.858 490.258 555.039 490.405Z" fill="white"/>
<path d="M530.146 525.936C531.348 524.521 532.665 523.21 534.035 521.954C535.407 520.702 536.865 519.542 538.393 518.471C539.166 517.948 539.968 517.465 540.793 517.024C541.62 516.587 542.472 516.177 543.383 515.918C544.284 515.653 545.237 515.48 546.189 515.582C547.133 515.691 548.053 516.133 548.631 516.868C547.956 516.223 547.064 515.876 546.166 515.861C545.267 515.82 544.371 516.031 543.52 516.336C541.81 516.951 540.222 517.901 538.715 518.943C537.184 519.958 535.746 521.114 534.322 522.286C532.902 523.463 531.516 524.686 530.146 525.936Z" fill="white"/>
<path d="M525.048 530.446C526.25 528.357 527.639 526.376 529.151 524.496C530.664 522.614 532.329 520.851 534.142 519.247C535.976 517.676 537.96 516.237 540.173 515.233C541.276 514.735 542.424 514.315 543.614 514.079C544.803 513.846 546.017 513.761 547.219 513.846C544.806 513.805 542.434 514.436 540.298 515.499C538.146 516.541 536.19 517.956 534.392 519.534C532.578 521.099 530.928 522.85 529.377 524.681C528.599 525.595 527.851 526.537 527.132 527.5C526.405 528.457 525.7 529.433 525.048 530.446Z" fill="white"/>
<path d="M415.781 569.846L413.282 570.358L410.794 570.91L408.322 571.506L405.881 572.198C402.656 573.195 399.517 574.498 396.735 576.379C393.912 578.198 391.485 580.579 389.419 583.24C388.875 583.884 388.398 584.582 387.927 585.283L387.209 586.33L386.558 587.419C385.633 588.843 384.889 590.368 384.06 591.857C385.354 588.711 386.942 585.667 388.951 582.886C390.954 580.107 393.451 577.659 396.315 575.744C399.207 573.866 402.418 572.525 405.719 571.637C409.026 570.754 412.399 570.217 415.781 569.846Z" fill="white"/>
<path d="M590.881 436.726C591.441 437.432 590.282 439.284 588.293 440.862C586.305 442.44 584.239 443.147 583.678 442.44C583.117 441.734 584.276 439.882 586.265 438.305C588.253 436.726 590.32 436.02 590.881 436.726Z" fill="white"/>
<path d="M583.535 436.003C583.935 436.508 583.22 437.743 581.937 438.761C580.653 439.779 579.288 440.195 578.887 439.691C578.487 439.185 579.202 437.95 580.486 436.932C581.768 435.914 583.134 435.498 583.535 436.003Z" fill="white"/>
<path d="M585.014 430.202C585.314 430.578 584.78 431.501 583.822 432.26C582.865 433.02 581.845 433.33 581.546 432.953C581.247 432.576 581.782 431.654 582.738 430.895C583.697 430.135 584.716 429.824 585.014 430.202Z" fill="white"/>
<path d="M603.568 425.597C603.867 425.975 603.333 426.897 602.375 427.656C601.418 428.416 600.399 428.727 600.099 428.349C599.801 427.972 600.335 427.051 601.292 426.291C602.25 425.532 603.269 425.221 603.568 425.597Z" fill="white"/>
<path d="M566.487 451.02C566.785 451.398 566.252 452.319 565.293 453.079C564.337 453.839 563.317 454.15 563.018 453.772C562.719 453.395 563.253 452.474 564.211 451.714C565.168 450.955 566.187 450.644 566.487 451.02Z" fill="white"/>
<path d="M580.846 442.157C581.527 443.015 580.202 445.198 577.889 447.033C575.575 448.869 573.148 449.663 572.468 448.805C571.787 447.947 573.111 445.764 575.425 443.928C577.738 442.093 580.165 441.3 580.846 442.157Z" fill="white"/>
<path d="M595.659 427.873C596.34 428.731 595.015 430.914 592.702 432.749C590.389 434.585 587.962 435.378 587.281 434.52C586.601 433.663 587.924 431.48 590.238 429.644C592.552 427.808 594.979 427.016 595.659 427.873Z" fill="white"/>
<path d="M573.694 438.409C574.044 438.851 573.265 440.053 571.952 441.095C570.639 442.136 569.291 442.622 568.941 442.18C568.591 441.738 569.37 440.536 570.682 439.494C571.994 438.453 573.342 437.967 573.694 438.409Z" fill="white"/>
<path d="M552.372 452.496C545.691 459.029 538.749 465.292 531.643 471.365C524.529 477.427 517.212 483.254 509.693 488.811C502.128 494.305 494.333 499.501 486.212 504.138C478.104 508.79 469.742 513.036 461.035 516.435C465.363 514.673 469.568 512.632 473.724 510.508C477.882 508.386 481.97 506.126 485.99 503.757C494.051 499.05 501.829 493.871 509.355 488.351C516.891 482.841 524.193 477.014 531.361 471.03C534.945 468.037 538.481 464.987 541.984 461.898C545.494 458.818 548.971 455.697 552.372 452.496Z" fill="white"/>
<path d="M413.513 568.009C420.809 566.792 428.217 566.321 435.613 566.221C443.018 566.094 450.413 566.628 457.783 567.137C465.152 567.679 472.53 568.209 479.905 567.938C487.276 567.723 494.618 566.417 501.598 563.974C498.14 565.281 494.578 566.322 490.949 567.062C487.319 567.799 483.623 568.202 479.924 568.378C472.516 568.742 465.113 568.204 457.742 567.707C450.371 567.149 443.002 566.627 435.616 566.659C431.923 566.651 428.231 566.754 424.544 566.973C420.858 567.181 417.171 567.476 413.513 568.009Z" fill="white"/>
<path d="M547.373 517.727C547.373 517.727 551.034 526.888 544.841 541.028C538.649 555.168 539.891 557.113 540.517 559.122C541.144 561.132 534.181 563.005 532.323 565.068C530.464 567.131 532.559 567.326 531.868 568.643C531.177 569.961 527.844 570.83 527.308 572.65C526.773 574.471 528.524 575.325 527.902 576.324C527.281 577.322 524.472 578.24 523.824 579.969C523.175 581.697 525.563 582.692 524.433 584.782C523.304 586.872 515.85 587.033 514.537 589.35C513.224 591.666 514.952 592.315 514.374 593.725C513.796 595.135 511.409 594.14 511.036 595.528C510.663 596.916 512.208 597.792 511.516 599.11C510.825 600.428 507.773 600.022 506.919 601.772C506.065 603.521 507.037 604.872 505.638 606.369C504.24 607.864 495.623 611.778 492.599 610.644C489.574 609.51 490.237 606.478 492.137 602.571C494.037 598.664 502.607 583.444 504.303 577.87C506 572.296 510.264 556.406 515.33 547.927C520.394 539.447 527.903 533.885 531.21 529.801C534.516 525.719 546.525 513.959 547.373 517.727Z" fill="#A8B7DD"/>
<path d="M81.0285 244.453C87.1366 245.891 116.266 236.338 128.894 227.362C141.522 218.385 164.805 199.124 191.38 183.464C217.956 167.805 247.273 155.767 262.513 154.546C262.513 154.546 263.726 153.815 261.468 152.242C259.211 150.669 257.607 148.109 261.513 145.632C265.42 143.155 279.926 136.729 294.081 128.111C308.236 119.494 322.432 96.2818 323.333 74.7727C324.234 53.2636 316.914 56.5487 316.374 56.8427C315.834 57.1372 318.945 59.5067 317.999 63.9453C317.052 68.384 310.409 79.2169 306.942 86.3593C303.474 93.5022 303.533 99.1448 303.533 99.1448C303.533 99.1448 299.085 97.923 294.496 100.562C289.907 103.2 284.38 106.56 281.239 103.365C278.099 100.171 280.994 108.192 285.556 108.721C285.556 108.721 272.886 108.613 259.922 107.964C246.958 107.316 227.58 100.42 200.375 105.914C173.169 111.407 129.299 156.17 119.905 167.098C110.512 178.027 90.0675 203.661 82.5631 217.415C75.0576 231.17 81.0285 244.453 81.0285 244.453Z" fill="#A8B7DD"/>
<path d="M81.0285 244.453C80.6335 244.292 80.2744 243.988 80.1625 243.564C80.0389 243.146 80.1139 242.698 80.2454 242.292C80.5074 241.469 80.9631 240.726 81.4432 240.014C82.418 238.595 83.5667 237.305 84.746 236.055C87.1222 233.567 89.6806 231.261 92.309 229.045C94.9581 226.851 97.6586 224.72 100.512 222.785C103.374 220.866 106.379 219.184 109.386 217.522C112.396 215.864 115.424 214.24 118.394 212.522C121.358 210.801 124.284 208.996 126.985 206.902C128.346 205.869 129.612 204.72 130.781 203.486C131.093 203.195 131.335 202.844 131.607 202.52C131.868 202.187 132.15 201.865 132.394 201.524C132.851 200.828 133.262 200.093 133.523 199.294C134.102 197.715 134.279 196.009 134.318 194.314C134.352 192.613 134.23 190.906 134.064 189.203C133.739 185.794 133.244 182.388 132.962 178.954C132.663 175.524 132.579 172.06 132.898 168.617C133.071 166.898 133.351 165.19 133.738 163.505C134.137 161.822 134.678 160.175 135.31 158.567C135.953 156.958 136.818 155.461 137.616 153.931C138.027 153.172 138.529 152.468 138.98 151.734C139.449 151.011 139.887 150.266 140.416 149.586C141.432 148.195 142.433 146.793 143.554 145.484C144.107 144.824 144.63 144.139 145.205 143.5L146.928 141.578C148.062 140.284 149.302 139.088 150.483 137.839C151.724 136.649 152.928 135.419 154.205 134.268C159.275 129.623 164.605 125.26 170.212 121.286C164.66 125.335 159.394 129.768 154.396 134.472C149.383 139.154 144.697 144.219 140.727 149.805C140.203 150.484 139.773 151.225 139.31 151.945C138.866 152.676 138.371 153.378 137.968 154.131C137.184 155.65 136.333 157.138 135.708 158.727C135.09 160.318 134.565 161.945 134.179 163.608C133.804 165.273 133.536 166.962 133.372 168.663C133.073 172.067 133.172 175.498 133.484 178.909C133.78 182.323 134.293 185.719 134.633 189.148C134.791 190.864 134.907 192.591 134.865 194.327C134.816 196.056 134.629 197.816 134.015 199.472C133.737 200.307 133.301 201.085 132.812 201.817C132.555 202.173 132.268 202.498 131.998 202.839C131.717 203.171 131.466 203.53 131.147 203.825C129.948 205.08 128.656 206.239 127.276 207.277C124.535 209.381 121.589 211.18 118.607 212.892C115.62 214.601 112.584 216.211 109.568 217.854C106.556 219.501 103.55 221.166 100.695 223.06C97.8512 224.967 95.144 227.092 92.4858 229.259C89.8334 231.435 87.2504 233.703 84.8459 236.151C83.6531 237.383 82.4907 238.654 81.5007 240.054C81.0122 240.756 80.5496 241.49 80.2786 242.302C80.1421 242.704 80.0632 243.146 80.179 243.559C80.2843 243.979 80.6354 244.286 81.0285 244.453Z" fill="white"/>
<path d="M122.191 210.507C123.351 209.615 124.45 208.639 125.375 207.504C126.283 206.358 127.041 205.1 127.619 203.759C128.737 201.053 129.179 198.118 129.258 195.203C129.353 192.28 129.151 189.356 128.849 186.448C128.566 183.538 127.843 180.693 127.349 177.805C126.85 174.919 126.57 171.973 126.808 169.042C127.041 166.108 127.867 163.249 129.064 160.578C129.384 159.919 129.675 159.244 130.02 158.598L131.156 156.716C131.352 156.405 131.523 156.079 131.738 155.783L132.391 154.899L133.698 153.132C134.648 152.017 135.627 150.927 136.607 149.84L139.759 146.782C135.48 150.752 131.597 155.291 129.18 160.63C127.998 163.293 127.186 166.139 126.967 169.055C126.74 171.97 127.031 174.897 127.537 177.772C128.019 180.653 128.732 183.506 129.007 186.432C129.299 189.345 129.49 192.276 129.385 195.207C129.293 198.131 128.841 201.08 127.704 203.794C127.109 205.137 126.333 206.394 125.41 207.534C124.472 208.662 123.36 209.628 122.191 210.507Z" fill="white"/>
<path d="M121.254 165.564C120.291 167.492 119.593 169.548 119.269 171.675C118.918 173.799 119.005 175.97 119.268 178.099C119.801 182.376 121.253 186.463 122.181 190.676C122.658 192.785 122.835 194.947 122.963 197.096C123.087 199.247 123.114 201.416 122.822 203.56C122.51 205.694 121.838 207.797 120.68 209.628C119.53 211.466 117.889 212.952 116.063 214.088C117.873 212.926 119.486 211.419 120.6 209.579C121.738 207.754 122.397 205.665 122.697 203.542C122.977 201.41 122.938 199.251 122.804 197.105C122.665 194.956 122.478 192.813 121.995 190.715C121.092 186.515 119.658 182.412 119.143 178.115C118.89 175.976 118.811 173.793 119.177 171.66C119.534 169.528 120.263 167.478 121.254 165.564Z" fill="white"/>
<path d="M113.652 174.575C112.63 176.134 111.918 177.889 111.658 179.728C111.376 181.564 111.525 183.447 111.918 185.258C112.684 188.903 114.227 192.319 115.449 195.838C116.057 197.598 116.564 199.408 116.853 201.252C117.162 203.091 117.346 204.959 117.277 206.827C117.2 208.685 116.896 210.577 116.046 212.254C115.239 213.952 113.83 215.307 112.204 216.202C113.816 215.278 115.192 213.908 115.962 212.213C116.792 210.546 117.085 208.67 117.15 206.823C117.209 204.966 117.015 203.109 116.697 201.279C116.398 199.441 115.885 197.655 115.269 195.899C114.071 192.385 112.544 188.952 111.794 185.283C111.411 183.46 111.268 181.562 111.566 179.714C111.859 177.866 112.605 176.116 113.652 174.575Z" fill="white"/>
<path d="M106.274 183.771C105.577 185.204 105.201 186.786 105.234 188.37C105.248 189.956 105.62 191.52 106.133 193.019C107.19 196.017 108.729 198.823 109.813 201.829C110.357 203.328 110.774 204.883 111.004 206.461C111.252 208.035 111.416 209.632 111.337 211.23C111.272 212.823 110.878 214.428 110.05 215.803C109.211 217.177 107.995 218.253 106.731 219.21C107.977 218.228 109.168 217.129 109.969 215.755C110.777 214.389 111.157 212.804 111.21 211.224C111.279 209.639 111.105 208.052 110.848 206.487C110.608 204.914 110.185 203.383 109.635 201.894C108.577 198.898 107.056 196.079 106.013 193.061C105.509 191.549 105.141 189.971 105.141 188.371C105.14 186.772 105.549 185.19 106.274 183.771Z" fill="white"/>
<path d="M100.521 191.203C99.8251 192.441 99.4417 193.834 99.417 195.243C99.367 196.655 99.655 198.057 100.08 199.4C100.916 202.102 102.243 204.619 103.319 207.243C104.41 209.862 105.066 212.69 105.016 215.538C104.99 216.957 104.683 218.396 103.962 219.632C103.241 220.87 102.158 221.839 101.004 222.649C102.141 221.813 103.197 220.824 103.882 219.586C104.581 218.36 104.875 216.941 104.889 215.536C104.917 214.126 104.722 212.718 104.444 211.335C104.151 209.955 103.673 208.623 103.143 207.314C102.091 204.694 100.78 202.161 99.9594 199.437C99.5421 198.083 99.2601 196.665 99.3247 195.24C99.3802 193.818 99.7986 192.423 100.521 191.203Z" fill="white"/>
<path d="M94.7441 198.956C93.7932 201.305 93.4915 203.943 94.1549 206.397C94.753 208.866 96.0083 211.106 96.9013 213.492C97.3317 214.693 97.6514 215.941 97.7661 217.216C97.8723 218.496 97.7496 219.772 97.5497 221.03C97.1167 223.521 96.0766 226.022 94.1557 227.721C95.0995 226.867 95.8027 225.778 96.3268 224.63C96.8618 223.483 97.2204 222.258 97.4244 221.009C97.6128 219.762 97.7241 218.486 97.6085 217.23C97.4843 215.974 97.1576 214.746 96.7235 213.558C95.8572 211.182 94.6153 208.923 94.0324 206.427C93.3674 203.944 93.7236 201.275 94.7441 198.956Z" fill="white"/>
<path d="M89.415 206.492C88.9609 208.61 88.8058 210.796 89.0856 212.937C89.3833 215.084 90.202 217.102 90.8382 219.177C91.1368 220.222 91.3807 221.289 91.4892 222.373C91.5816 223.459 91.5943 224.548 91.5162 225.632C91.4343 226.716 91.2713 227.796 90.9664 228.842C90.6359 229.868 90.209 230.911 89.4393 231.686C90.1845 230.89 90.5778 229.842 90.8775 228.815C91.1665 227.775 91.3194 226.701 91.3902 225.624C91.4572 224.546 91.4328 223.462 91.3318 222.39C91.2139 221.318 90.9614 220.266 90.6556 219.231C90.0445 217.164 89.239 215.122 88.961 212.954C88.6848 210.792 88.8896 208.592 89.415 206.492Z" fill="white"/>
<path d="M83.7134 215.385C83.4841 217.161 83.5163 218.98 83.964 220.708C84.3889 222.448 85.2438 224.036 85.953 225.685C86.6543 227.338 87.0942 229.138 87.0144 230.946C86.9554 232.733 86.3619 234.585 85.0518 235.839C86.3035 234.534 86.8351 232.703 86.8874 230.941C86.9453 229.153 86.491 227.39 85.7775 225.758C85.0927 224.113 84.2499 222.501 83.8415 220.739C83.3958 218.988 83.4109 217.15 83.7134 215.385Z" fill="white"/>
<path d="M80.3975 222.363C80.1617 223.72 80.1313 225.105 80.3548 226.455C80.5768 227.808 81.0562 229.101 81.5732 230.373C82.0689 231.653 82.5982 232.939 82.8664 234.301C83.1421 235.661 83.0693 237.083 82.6731 238.405C82.9968 237.064 83.0214 235.666 82.7421 234.326C82.4574 232.985 81.9115 231.718 81.3965 230.442C80.8976 229.161 80.4331 227.847 80.2304 226.476C80.0105 225.107 80.0893 223.704 80.3975 222.363Z" fill="white"/>
<path d="M135.956 180.237C136.86 180.452 137.765 180.486 138.632 180.37C139.495 180.238 140.324 179.964 141.068 179.51C142.59 178.623 143.88 177.362 144.941 175.844C144.697 176.749 144.214 177.584 143.615 178.316C143.023 179.06 142.272 179.677 141.449 180.169C139.786 181.172 137.546 181.252 135.956 180.237Z" fill="white"/>
<path d="M145.431 178.096C145.183 178.828 144.795 179.507 144.342 180.14C143.888 180.772 143.331 181.337 142.689 181.799C142.035 182.243 141.279 182.551 140.493 182.646C139.704 182.773 138.915 182.581 138.198 182.327C138.586 182.35 138.952 182.475 139.334 182.443L139.896 182.445L140.448 182.357C141.172 182.2 141.86 181.909 142.472 181.484C143.082 181.058 143.619 180.53 144.112 179.959C144.599 179.383 145.041 178.759 145.431 178.096Z" fill="white"/>
<path d="M143.407 178.104C142.691 176.821 141.209 176.326 140.054 176.777C139.478 176.983 138.946 177.435 138.561 177.946C138.192 178.456 138.068 179.151 138.352 179.843C137.784 179.348 137.657 178.372 138.046 177.649C138.415 176.935 139.012 176.37 139.789 176.062C140.178 175.932 140.592 175.859 141.002 175.895C141.408 175.94 141.805 176.053 142.152 176.256C142.849 176.641 143.356 177.36 143.407 178.104Z" fill="white"/>
<path d="M143.705 175.457C142.321 174.938 140.818 175.051 139.515 175.603C138.852 175.867 138.259 176.277 137.675 176.699C137.39 176.92 137.125 177.168 136.845 177.403C136.584 177.655 136.33 177.918 136.056 178.168C136.263 177.864 136.491 177.574 136.71 177.273C136.967 177.008 137.216 176.729 137.487 176.474C138.046 175.983 138.666 175.542 139.367 175.252C140.066 174.967 140.823 174.8 141.579 174.835C142.33 174.863 143.083 175.053 143.705 175.457Z" fill="white"/>
<path d="M143.345 173.99C142.2 173.774 141.047 173.796 139.963 174.1C139.424 174.251 138.894 174.454 138.401 174.734C137.895 174.996 137.442 175.347 136.968 175.692C137.153 175.468 137.345 175.243 137.554 175.037C137.78 174.849 137.995 174.641 138.248 174.484C138.729 174.131 139.291 173.901 139.863 173.732C140.441 173.572 141.044 173.512 141.638 173.558C142.229 173.601 142.818 173.728 143.345 173.99Z" fill="white"/>
<path d="M141.096 178.255C140.926 178.096 140.917 177.831 141.076 177.661C141.234 177.491 141.5 177.481 141.67 177.639C141.84 177.798 141.849 178.065 141.691 178.234C141.532 178.404 141.266 178.414 141.096 178.255Z" fill="white"/>
<path d="M168.406 144.547C167.109 145.874 165.704 147.09 164.25 148.247C162.793 149.4 161.258 150.456 159.659 151.418C158.852 151.886 158.018 152.312 157.164 152.694C156.309 153.073 155.43 153.422 154.504 153.617C153.586 153.818 152.623 153.924 151.681 153.756C150.747 153.582 149.86 153.077 149.334 152.303C149.962 152.993 150.828 153.402 151.723 153.479C152.617 153.583 153.525 153.435 154.396 153.19C156.145 152.696 157.795 151.859 159.371 150.924C160.969 150.019 162.484 148.966 163.987 147.897C165.485 146.822 166.953 145.698 168.406 144.547Z" fill="white"/>
<path d="M173.807 140.403C172.462 142.403 170.939 144.282 169.298 146.052C167.658 147.825 165.874 149.466 163.954 150.941C162.015 152.38 159.935 153.676 157.658 154.523C156.522 154.944 155.348 155.283 154.144 155.435C152.942 155.585 151.725 155.585 150.532 155.416C152.936 155.625 155.346 155.161 157.551 154.25C159.77 153.36 161.821 152.085 163.724 150.637C165.644 149.202 167.411 147.57 169.086 145.852C169.927 144.994 170.738 144.107 171.523 143.197C172.315 142.292 173.086 141.368 173.807 140.403Z" fill="white"/>
<path d="M285.556 108.721L288.085 108.384L290.605 108.007L293.112 107.585L295.596 107.065C298.883 106.296 302.105 105.215 305.012 103.532C307.954 101.915 310.542 99.7092 312.788 97.199C313.376 96.5937 313.9 95.9313 314.419 95.2643L315.208 94.2706L315.934 93.2295C316.956 91.8738 317.804 90.4039 318.735 88.9764C317.225 92.0246 315.428 94.9506 313.23 97.5843C311.038 100.217 308.377 102.485 305.385 104.196C302.37 105.867 299.074 106.981 295.718 107.636C292.357 108.286 288.956 108.587 285.556 108.721Z" fill="white"/>
<path d="M101.597 229.303C101.087 228.559 102.372 226.792 104.466 225.357C106.56 223.921 108.67 223.361 109.181 224.104C109.691 224.848 108.406 226.614 106.312 228.05C104.218 229.486 102.106 230.046 101.597 229.303Z" fill="white"/>
<path d="M108.874 230.536C108.511 230.004 109.309 228.822 110.661 227.896C112.012 226.97 113.403 226.651 113.768 227.182C114.132 227.714 113.332 228.896 111.981 229.822C110.63 230.748 109.239 231.068 108.874 230.536Z" fill="white"/>
<path d="M106.994 236.22C106.721 235.824 107.319 234.941 108.327 234.251C109.335 233.559 110.373 233.32 110.645 233.718C110.917 234.114 110.32 234.997 109.312 235.688C108.304 236.378 107.265 236.617 106.994 236.22Z" fill="white"/>
<path d="M88.1643 239.519C87.8926 239.122 88.4892 238.239 89.4975 237.548C90.5053 236.858 91.5435 236.619 91.8163 237.016C92.0874 237.412 91.4909 238.295 90.4825 238.986C89.4747 239.677 88.4366 239.916 88.1643 239.519Z" fill="white"/>
<path d="M126.929 216.745C126.657 216.347 127.254 215.465 128.262 214.774C129.27 214.083 130.308 213.844 130.581 214.241C130.852 214.639 130.255 215.52 129.247 216.211C128.239 216.902 127.201 217.141 126.929 216.745Z" fill="white"/>
<path d="M111.987 224.584C111.367 223.681 112.841 221.596 115.276 219.926C117.712 218.256 120.189 217.634 120.808 218.538C121.427 219.44 119.954 221.526 117.518 223.196C115.082 224.866 112.605 225.487 111.987 224.584Z" fill="white"/>
<path d="M96.2126 237.801C95.5931 236.898 97.0668 234.812 99.5023 233.143C101.938 231.473 104.415 230.85 105.034 231.754C105.653 232.656 104.18 234.742 101.744 236.412C99.308 238.082 96.8315 238.703 96.2126 237.801Z" fill="white"/>
<path d="M118.86 228.822C118.541 228.357 119.402 227.212 120.784 226.265C122.166 225.318 123.545 224.927 123.864 225.392C124.182 225.858 123.321 227.002 121.94 227.95C120.558 228.897 119.179 229.288 118.86 228.822Z" fill="white"/>
<path d="M141.111 216.257C148.232 210.206 155.594 204.442 163.106 198.881C170.627 193.329 178.332 188.027 186.22 183.008C194.15 178.055 202.289 173.416 210.714 169.356C219.126 165.281 227.763 161.628 236.686 158.846C232.247 160.301 227.909 162.044 223.615 163.873C219.319 165.699 215.084 167.668 210.908 169.751C202.538 173.885 194.418 178.508 186.525 183.49C178.624 188.462 170.933 193.764 163.365 199.234C159.581 201.969 155.84 204.765 152.13 207.602C148.414 210.43 144.728 213.301 141.111 216.257Z" fill="white"/>
<path d="M287.691 110.712C280.328 111.417 272.905 111.37 265.52 110.954C258.124 110.564 250.784 109.516 243.467 108.493C236.155 107.439 228.831 106.395 221.455 106.151C214.087 105.852 206.673 106.643 199.539 108.593C203.079 107.529 206.705 106.74 210.377 106.255C214.05 105.773 217.765 105.629 221.468 105.711C228.882 105.865 236.23 106.918 243.548 107.928C250.863 108.998 258.177 110.033 265.548 110.517C269.23 110.782 272.921 110.937 276.614 110.976C280.306 111.025 284.005 110.988 287.691 110.712Z" fill="white"/>
<path d="M150.649 151.534C150.649 151.534 147.636 142.14 154.8 128.466C161.964 114.792 160.86 112.766 160.376 110.718C159.89 108.669 166.967 107.287 168.965 105.358C170.963 103.43 168.886 103.089 169.668 101.823C170.45 100.557 173.835 99.9221 174.496 98.1437C175.157 96.3653 173.47 95.3912 174.16 94.4382C174.849 93.4852 177.715 92.7654 178.482 91.0863C179.25 89.4077 176.938 88.2488 178.21 86.2425C179.483 84.2361 186.93 84.5953 188.401 82.376C189.872 80.1566 188.194 79.3888 188.869 78.0231C189.543 76.6569 191.855 77.8152 192.325 76.4567C192.793 75.0983 191.314 74.1169 192.095 72.8505C192.877 71.5842 195.893 72.2017 196.867 70.5159C197.841 68.8302 196.965 67.4145 198.465 66.0195C199.965 64.625 208.833 61.3214 211.771 62.664C214.71 64.0065 213.836 66.9845 211.669 70.7494C209.501 74.5148 199.891 89.0996 197.809 94.5413C195.728 99.9841 190.366 115.537 184.721 123.643C179.077 131.749 171.198 136.773 167.615 140.616C164.032 144.458 151.232 155.352 150.649 151.534Z" fill="#A8B7DD"/>
<path d="M303.979 591.025C307.404 586.171 304.373 578.972 296.781 570.568C289.188 562.163 278.883 551.318 275.494 547.386C272.104 543.455 271.016 538.85 265.459 533.833C259.901 528.816 253.395 523.934 246.21 516.478C243.674 513.848 240.312 510.216 236.072 506.077C233.808 500.397 229.23 488.373 227.789 480.602C225.848 470.138 227.157 457.036 227.151 451.55C227.146 446.065 226.836 440.884 225.007 440.273C223.178 439.661 220.847 445.043 220.543 446.566C220.24 448.09 221.562 448.802 221.461 449.919C221.36 451.037 218.822 451.745 218.417 453.167C218.012 454.589 219.739 454.286 219.842 455.809C219.945 457.334 217.608 457.23 217.407 458.651C217.205 460.073 218.316 461.199 218.625 462.11C218.934 463.021 216.581 465.336 216.541 466.514C216.501 467.692 217.821 466.778 218.126 468.099C218.433 469.419 215.794 472.058 216.304 473.989C216.814 475.919 218.033 476.733 219.152 479.07C220.273 481.408 218.141 482.929 218.956 484.556C219.525 485.693 221.441 490.456 224.209 495.442C218.312 490.626 211.421 485.677 203.458 481.141C181.695 468.741 157.579 462.217 140.647 459.627C123.714 457.037 109.902 460.004 102.176 453.36C94.4499 446.715 94.2997 431.139 81.42 417.989C68.5403 404.84 61.231 409.437 60.9606 409.979C60.6902 410.52 61.2325 411.063 64.7545 411.337C68.2754 411.611 76.0035 419.61 74.7941 429.225C73.5846 438.839 74.2691 446.561 77.7947 451.169C77.7947 451.169 67.9101 452.649 62.6337 459.28C57.3579 465.912 53.7098 474.441 48.564 476.333C43.4193 478.223 43.2855 479.171 45.7233 479.986C48.1622 480.801 64.6863 481.088 73.8888 472.7C83.0897 464.312 93.787 461.748 102.864 463.518C111.94 465.288 129.822 469.91 145.956 487.126C162.09 504.343 158.575 510.569 171.729 527.783C182.565 541.963 195.994 550.425 195.994 550.425C195.994 550.425 185.16 551.498 177.708 548.375C170.256 545.253 169.981 540.918 170.52 538.481C171.06 536.044 168.216 536.447 166.866 540.51C165.515 544.572 165.25 551.343 169.183 556.629C173.116 561.915 180.296 562.87 182.328 563.82C184.36 564.77 184.633 566.396 185.853 567.345C187.072 568.294 188.289 565.993 189.779 566.4C191.27 566.808 191.678 569.111 193.574 569.384C195.471 569.656 196.695 567.89 198.589 568.166C200.481 568.442 201.431 570.475 202.786 570.748C204.141 571.02 204.952 569.395 206.984 569.803C209.015 570.211 211.456 572.11 213.893 571.841C216.331 571.573 220.664 571.036 225.813 572.937C230.961 574.838 251.691 582.036 260.091 585.566C268.492 589.095 286.512 595.749 290.168 595.888C293.826 596.027 300.733 595.627 303.979 591.025Z" fill="#A8B7DD"/>
<path d="M224.21 495.443C225.245 497.108 226.231 498.794 227.213 500.486C228.2 502.173 229.142 503.888 230.048 505.627C230.931 507.377 231.795 509.151 232.41 511.036C232.714 511.978 232.959 512.949 233.046 513.947C233.093 514.93 232.97 516.023 232.293 516.77C232.818 515.925 232.834 514.919 232.675 513.989C232.519 513.047 232.221 512.128 231.859 511.233C231.133 509.445 230.263 507.705 229.372 505.973C228.488 504.237 227.566 502.516 226.699 500.761L225.407 498.127C225.003 497.234 224.582 496.35 224.21 495.443Z" fill="white"/>
<path d="M229.34 508.335C229.803 508.967 230.164 509.667 230.474 510.388C230.783 511.11 231.025 511.867 231.157 512.648C231.28 513.429 231.324 514.233 231.192 515.02C231.048 515.805 230.739 516.554 230.263 517.174C230.603 516.469 230.821 515.736 230.901 514.981C230.959 514.223 230.908 513.463 230.781 512.712C230.664 511.958 230.438 511.223 230.203 510.491C229.955 509.763 229.667 509.043 229.34 508.335Z" fill="white"/>
<path d="M195.994 550.425C198.955 552.855 201.928 555.264 204.981 557.566C208.034 559.866 211.145 562.09 214.378 564.124C217.586 566.196 220.913 568.078 224.316 569.815C227.719 571.553 231.215 573.108 234.753 574.57C231.13 573.33 227.579 571.872 224.122 570.208C220.664 568.546 217.319 566.65 214.072 564.604C210.848 562.521 207.719 560.294 204.714 557.912C201.708 555.532 198.8 553.032 195.994 550.425Z" fill="white"/>
<path d="M169.782 525.146C167.75 521.456 165.992 517.621 164.443 513.705C162.89 509.789 161.551 505.794 160.22 501.8C158.881 497.812 157.559 493.809 155.841 489.976C154.123 486.16 151.921 482.493 148.816 479.67L148.375 479.271L148.957 479.377C157.388 480.934 165.678 483.155 173.818 485.829C181.942 488.548 189.919 491.758 197.528 495.727C205.141 499.708 212.176 504.675 219.005 509.844C225.82 515.047 232.301 520.675 238.559 526.528C241.675 529.471 244.736 532.471 247.727 535.539C250.727 538.595 253.623 541.767 256.524 544.901C257.995 546.429 259.665 547.775 261.345 549.09C263.022 550.413 264.759 551.663 266.5 552.904C269.989 555.377 273.554 557.747 277.155 560.061C280.758 562.368 284.387 564.638 288.084 566.792C291.79 568.981 295.103 571.769 298.092 574.841C299.579 576.386 300.99 578.013 302.206 579.785C303.453 581.54 304.193 583.655 304.314 585.799C304.44 587.934 303.843 590.157 302.456 591.806C301.109 593.49 299.17 594.591 297.147 595.253C299.165 594.574 301.089 593.456 302.412 591.771C303.775 590.121 304.344 587.916 304.203 585.805C304.063 583.684 303.315 581.604 302.067 579.88C300.845 578.13 299.425 576.523 297.932 574.998C294.925 571.968 291.606 569.218 287.932 567.053C284.223 564.908 280.584 562.647 276.97 560.348C273.36 558.044 269.785 555.681 266.281 553.215C264.533 551.976 262.788 550.729 261.099 549.406C259.408 548.088 257.729 546.745 256.221 545.191C253.297 542.051 250.409 538.905 247.401 535.858C244.404 532.804 241.339 529.818 238.221 526.89C231.956 521.064 225.467 515.474 218.66 510.295C211.859 505.116 204.864 500.147 197.299 496.162C189.733 492.186 181.786 488.961 173.688 486.223C165.577 483.53 157.297 481.287 148.901 479.711L149.042 479.418C152.188 482.296 154.399 486.013 156.116 489.853C157.84 493.71 159.124 497.732 160.428 501.733C161.724 505.737 163.028 509.74 164.546 513.665C166.059 517.591 167.782 521.439 169.782 525.146Z" fill="white"/>
<mask id="mask0_165_761" style="mask-type:luminance" maskUnits="userSpaceOnUse" x="137" y="453" width="172" height="171">
<path d="M175.422 453.051L308.345 585.974L270.856 623.463L137.933 490.54L175.422 453.051Z" fill="white"/>
</mask>
<g mask="url(#mask0_165_761)">
<mask id="mask1_165_761" style="mask-type:luminance" maskUnits="userSpaceOnUse" x="161" y="460" width="142" height="142">
<path d="M182.959 460.588L302.587 580.216L280.867 601.936L161.239 482.308L182.959 460.588Z" fill="white"/>
</mask>
<g mask="url(#mask1_165_761)">
<path d="M161.239 482.308C168.006 484.841 174.685 487.61 181.264 490.599C187.845 493.584 194.326 496.801 200.583 500.423C206.887 503.978 212.689 508.35 218.241 512.971C223.797 517.599 229.085 522.538 234.296 527.547C239.495 532.57 244.568 537.721 249.709 542.8C252.295 545.319 254.84 547.904 257.791 549.992C260.714 552.109 263.776 554.034 266.878 555.885C273.071 559.607 279.382 563.137 285.521 566.954C288.568 568.894 291.625 570.83 294.503 573.02C297.371 575.206 300.197 577.508 302.474 580.329C300.191 577.513 297.36 575.219 294.489 573.04C291.607 570.856 288.547 568.927 285.495 566.995C279.35 563.192 273.032 559.677 266.829 555.967C263.723 554.123 260.655 552.204 257.72 550.088C254.756 548 252.198 545.414 249.609 542.902C244.455 537.832 239.371 532.695 234.163 527.684C228.967 522.665 223.692 517.717 218.15 513.08C212.61 508.449 206.828 504.071 200.536 500.506C194.291 496.872 187.817 493.641 181.245 490.642C174.673 487.639 168 484.856 161.239 482.308Z" fill="white"/>
</g>
<mask id="mask2_165_761" style="mask-type:luminance" maskUnits="userSpaceOnUse" x="155" y="458" width="150" height="150">
<path d="M178.062 458.434L304.147 584.519L281.664 607.003L155.579 480.917L178.062 458.434Z" fill="white"/>
</mask>
<g mask="url(#mask2_165_761)">
<path d="M155.578 480.918C159.102 482.317 162.519 483.971 165.916 485.652C169.309 487.344 172.667 489.107 176.001 490.913C182.668 494.526 189.223 498.348 195.651 502.374C198.849 504.412 202.052 506.445 205.147 508.639C208.262 510.804 211.262 513.129 214.232 515.488C220.148 520.239 225.864 525.23 231.5 530.305C237.125 535.395 242.649 540.593 248.235 545.72C251.047 548.26 253.804 550.88 256.889 553.081C259.961 555.299 263.185 557.302 266.42 559.277C272.893 563.226 279.468 567.007 285.913 571.005C289.131 573.011 292.334 575.044 295.421 577.249C298.493 579.459 301.57 581.726 304.12 584.546C301.564 581.732 298.483 579.471 295.406 577.268C292.317 575.071 289.109 573.044 285.889 571.046C279.435 567.062 272.853 563.294 266.369 559.359C263.131 557.389 259.901 555.394 256.819 553.177C253.72 550.976 250.956 548.361 248.139 545.826C242.54 540.709 237.005 535.524 231.374 530.446C225.748 525.36 220.045 520.359 214.143 515.599C211.18 513.235 208.187 510.907 205.078 508.736C201.991 506.537 198.793 504.498 195.6 502.453C189.183 498.415 182.638 494.581 175.978 490.954C172.648 489.142 169.295 487.372 165.905 485.673C162.512 483.985 159.099 482.324 155.578 480.918Z" fill="white"/>
</g>
<mask id="mask3_165_761" style="mask-type:luminance" maskUnits="userSpaceOnUse" x="152" y="457" width="153" height="153">
<path d="M175.278 457.908L304.27 586.9L281.86 609.31L152.868 480.318L175.278 457.908Z" fill="white"/>
</mask>
<g mask="url(#mask3_165_761)">
<path d="M152.868 480.318C156.298 482.101 159.63 484.068 162.941 486.063C166.249 488.064 169.528 490.114 172.79 492.191C179.304 496.357 185.752 500.628 192.127 505.007C195.318 507.191 198.484 509.41 201.637 511.649C204.774 513.911 207.872 516.227 210.909 518.621C217.004 523.386 222.938 528.347 228.835 533.352L246.42 548.484C247.894 549.735 249.367 550.986 250.858 552.216C252.344 553.453 253.853 554.66 255.42 555.788C258.575 558.019 261.881 560.03 265.188 562.028C271.826 565.995 278.558 569.8 285.197 573.765C288.52 575.742 291.816 577.764 295.045 579.894C298.264 582.026 301.47 584.224 304.27 586.9C301.465 584.23 298.254 582.04 295.032 579.914C291.8 577.791 288.499 575.777 285.173 573.806C278.526 569.855 271.786 566.064 265.14 562.11C261.827 560.117 258.517 558.114 255.352 555.885C253.777 554.757 252.264 553.551 250.774 552.318C249.281 551.09 247.804 549.841 246.328 548.593L228.712 533.496C222.828 528.481 216.903 523.508 210.822 518.734C207.79 516.334 204.698 514.012 201.568 511.746C198.421 509.5 195.259 507.275 192.073 505.085C185.708 500.694 179.269 496.41 172.764 492.23C169.507 490.148 166.233 488.09 162.929 486.083C159.622 484.082 156.295 482.108 152.868 480.318Z" fill="white"/>
</g>
<mask id="mask4_165_761" style="mask-type:luminance" maskUnits="userSpaceOnUse" x="152" y="458" width="153" height="153">
<path d="M174.04 458.27L304.09 588.319L282.194 610.215L152.145 480.166L174.04 458.27Z" fill="white"/>
</mask>
<g mask="url(#mask4_165_761)">
<path d="M152.145 480.166C158.585 484.546 164.755 489.302 170.966 493.998L189.558 508.139C195.756 512.85 202.054 517.432 208.187 522.233C214.335 527.012 220.415 531.88 226.476 536.767C232.532 541.661 238.56 546.59 244.655 551.435C247.711 553.844 250.753 556.279 253.931 558.524C257.13 560.734 260.493 562.703 263.867 564.641C270.629 568.501 277.491 572.182 284.288 575.977C287.692 577.866 291.072 579.799 294.415 581.795C297.748 583.8 301.067 585.862 304.09 588.319C301.062 585.868 297.739 583.813 294.401 581.816C291.056 579.827 287.672 577.901 284.265 576.019C277.461 572.237 270.591 568.571 263.82 564.724C260.441 562.793 257.074 560.83 253.862 558.621C250.675 556.38 247.628 553.952 244.566 551.547C238.461 546.714 232.421 541.798 226.357 536.914C220.305 532.015 214.237 527.136 208.1 522.345C201.978 517.534 195.691 512.939 189.501 508.214L170.937 494.035C164.736 489.328 158.575 484.558 152.145 480.166Z" fill="white"/>
</g>
<mask id="mask5_165_761" style="mask-type:luminance" maskUnits="userSpaceOnUse" x="152" y="459" width="152" height="152">
<path d="M172.905 459.405L303.531 590.031L282.77 610.791L152.145 480.166L172.905 459.405Z" fill="white"/>
</mask>
<g mask="url(#mask5_165_761)">
<path d="M152.145 480.166C158.016 485.339 163.671 490.748 169.481 495.988C175.279 501.241 181.163 506.4 187.198 511.378C193.216 516.376 199.424 521.14 205.6 525.944L224.163 540.305C230.36 545.08 236.57 549.838 242.854 554.498C245.998 556.824 249.159 559.129 252.393 561.327C255.636 563.511 259.053 565.423 262.465 567.332C269.303 571.13 276.244 574.741 283.146 578.421C286.6 580.258 290.045 582.11 293.469 584C296.882 585.909 300.299 587.825 303.531 590.03C300.294 587.831 296.874 585.922 293.457 584.021C290.029 582.137 286.58 580.292 283.124 578.463C276.214 574.797 269.266 571.201 262.419 567.416C259.002 565.513 255.58 563.608 252.327 561.426C249.085 559.233 245.918 556.934 242.769 554.613C236.476 549.965 230.253 545.22 224.047 540.455L205.512 526.056C199.347 521.24 193.147 516.463 187.138 511.451C181.111 506.46 175.237 501.288 169.45 496.023C163.65 490.771 158.005 485.35 152.145 480.166Z" fill="white"/>
</g>
<mask id="mask6_165_761" style="mask-type:luminance" maskUnits="userSpaceOnUse" x="150" y="459" width="153" height="154">
<path d="M171.033 459.655L302.762 591.385L281.99 612.156L150.261 480.427L171.033 459.655Z" fill="white"/>
</mask>
<g mask="url(#mask6_165_761)">
<path d="M150.795 479.893C156.637 485.238 161.886 491.18 167.281 496.963C172.657 502.768 178.197 508.425 184.022 513.78C189.839 519.145 195.978 524.142 202.209 529.017C208.434 533.901 214.749 538.668 221.114 543.366C227.474 548.073 233.886 552.709 240.386 557.219C243.638 559.469 246.905 561.702 250.234 563.836C253.556 565.984 257.027 567.886 260.511 569.757C267.495 573.473 274.567 577.02 281.637 580.57C288.697 584.136 295.818 587.593 302.762 591.385C295.81 587.607 288.683 584.165 281.616 580.611C274.538 577.077 267.459 573.543 260.466 569.842C256.978 567.977 253.5 566.079 250.171 563.938C246.834 561.808 243.563 559.581 240.305 557.336C233.793 552.838 227.371 548.215 221.002 543.519C214.645 538.807 208.337 534.026 202.121 529.129C195.899 524.241 189.766 519.227 183.957 513.85C178.141 508.48 172.611 502.811 167.247 496.995C161.862 491.201 156.626 485.25 150.795 479.893Z" fill="white"/>
</g>
<mask id="mask7_165_761" style="mask-type:luminance" maskUnits="userSpaceOnUse" x="146" y="459" width="156" height="156">
<path d="M168.819 459.654L301.742 592.578L279.541 614.779L146.618 481.855L168.819 459.654Z" fill="white"/>
</mask>
<g mask="url(#mask7_165_761)">
<path d="M148.928 479.544C151.951 482.184 154.628 485.19 157.207 488.257C159.781 491.332 162.274 494.474 164.797 497.59C167.308 500.717 169.877 503.796 172.491 506.836C173.824 508.332 175.124 509.861 176.497 511.32L178.534 513.532L180.626 515.693C186.208 521.45 192.195 526.805 198.479 531.787C204.739 536.797 211.168 541.593 217.687 546.26C224.206 550.929 230.821 555.464 237.528 559.859C244.251 564.223 251.035 568.521 258.224 572.085C265.365 575.731 272.595 579.198 279.846 582.62C287.105 586.026 294.375 589.412 301.742 592.577C294.368 589.427 287.091 586.056 279.826 582.663C272.569 579.255 265.331 575.802 258.18 572.169C250.983 568.617 244.182 564.33 237.45 559.979C230.733 555.596 224.106 551.074 217.577 546.415C211.064 541.733 204.643 536.921 198.389 531.897C192.114 526.902 186.131 521.53 180.558 515.759L178.47 513.593L176.436 511.377C175.065 509.914 173.768 508.382 172.437 506.883C169.828 503.837 167.265 500.752 164.76 497.62C162.244 494.498 159.756 491.352 157.189 488.272C154.616 485.201 151.947 482.189 148.928 479.544Z" fill="white"/>
</g>
<mask id="mask8_165_761" style="mask-type:luminance" maskUnits="userSpaceOnUse" x="150" y="467" width="151" height="151">
<path d="M174.259 467.899L300.18 593.82L276.445 617.555L150.524 491.634L174.259 467.899Z" fill="white"/>
</mask>
<g mask="url(#mask8_165_761)">
<path d="M154.774 487.383C157.139 490.393 159.387 493.492 161.522 496.668C163.662 499.842 165.701 503.082 167.871 506.233C170.043 509.383 172.341 512.448 174.848 515.34C175.458 516.076 176.117 516.771 176.749 517.489C177.382 518.206 178.028 518.911 178.697 519.594L180.683 521.666L182.73 523.678C188.223 529.004 193.999 534.04 200.024 538.756C206.053 543.469 212.274 547.932 218.605 552.23C224.932 556.532 231.36 560.691 237.915 564.64C241.184 566.626 244.497 568.542 247.847 570.389C251.195 572.239 254.642 573.903 258.082 575.577C264.971 578.909 271.906 582.145 278.892 585.268C282.387 586.827 285.891 588.364 289.427 589.825C292.965 591.274 296.513 592.725 300.18 593.82C296.51 592.732 292.959 591.288 289.417 589.847C285.878 588.393 282.371 586.863 278.873 585.312C271.88 582.203 264.938 578.982 258.041 575.664C254.597 573.997 251.145 572.339 247.79 570.493C244.434 568.652 241.116 566.743 237.841 564.762C231.276 560.825 224.837 556.679 218.499 552.387C212.174 548.074 205.959 543.595 199.937 538.869C193.917 534.137 188.149 529.085 182.664 523.745L180.62 521.729L178.637 519.652C177.968 518.967 177.324 518.259 176.692 517.54C176.061 516.821 175.402 516.125 174.794 515.386C172.291 512.487 169.998 509.414 167.833 506.259C165.668 503.103 163.635 499.859 161.502 496.682C159.374 493.501 157.133 490.397 154.774 487.383Z" fill="white"/>
</g>
<mask id="mask9_165_761" style="mask-type:luminance" maskUnits="userSpaceOnUse" x="150" y="472" width="148" height="148">
<path d="M175.149 472.411L297.573 594.836L272.835 619.574L150.41 497.149L175.149 472.411Z" fill="white"/>
</mask>
<g mask="url(#mask9_165_761)">
<path d="M156.491 491.068C158.714 494.088 160.768 497.233 162.597 500.507C164.438 503.776 166.07 507.156 167.912 510.421C169.743 513.693 171.83 516.817 174.139 519.769L175.904 521.958C176.51 522.673 177.139 523.368 177.756 524.074C178.968 525.504 180.311 526.815 181.591 528.184C186.853 533.526 192.442 538.549 198.36 543.153C204.268 547.769 210.411 552.082 216.68 556.192C222.945 560.31 229.344 564.227 235.855 567.944C239.123 569.782 242.398 571.605 245.738 573.311C249.061 575.045 252.488 576.567 255.893 578.137C262.704 581.275 269.511 584.422 276.401 587.382C279.842 588.867 283.309 590.297 286.817 591.619C290.33 592.912 293.872 594.208 297.573 594.836C293.871 594.216 290.324 592.927 286.809 591.641C283.298 590.327 279.827 588.904 276.381 587.426C269.485 584.48 262.67 581.348 255.854 578.223C252.447 576.662 249.014 575.145 245.683 573.417C242.339 571.717 239.057 569.9 235.785 568.069C229.263 564.363 222.853 560.459 216.576 556.35C210.312 552.225 204.175 547.896 198.271 543.266C192.359 538.645 186.776 533.606 181.523 528.251C180.245 526.878 178.904 525.563 177.693 524.129C177.078 523.421 176.45 522.724 175.844 522.008L174.084 519.814C171.779 516.853 169.695 513.721 167.87 510.444C166.035 507.173 164.411 503.79 162.577 500.519C160.756 497.241 158.708 494.094 156.491 491.068Z" fill="white"/>
</g>
<mask id="mask10_165_761" style="mask-type:luminance" maskUnits="userSpaceOnUse" x="147" y="474" width="148" height="148">
<path d="M173.491 474.569L294.632 595.71L268.867 621.474L147.727 500.334L173.491 474.569Z" fill="white"/>
</mask>
<g mask="url(#mask10_165_761)">
<path d="M156.637 491.423C158.466 494.697 160.274 497.992 161.768 501.436C163.307 504.857 164.6 508.383 166.004 511.86C167.402 515.338 169.086 518.71 171.2 521.809C173.297 524.916 175.688 527.823 178.252 530.558L180.168 532.617L182.157 534.607C182.823 535.266 183.475 535.941 184.154 536.588L186.204 538.515L188.253 540.442C188.946 541.074 189.658 541.684 190.36 542.306C191.067 542.921 191.762 543.552 192.479 544.155L194.657 545.934C200.483 550.66 206.625 554.986 212.924 559.058C219.219 563.136 225.678 566.964 232.273 570.536C238.872 574.1 245.57 577.504 252.53 580.309C259.447 583.217 266.257 586.37 273.19 589.238C276.656 590.67 280.146 592.052 283.696 593.26C285.472 593.859 287.264 594.422 289.085 594.866L290.452 595.193C290.909 595.296 291.375 595.354 291.836 595.438C292.756 595.634 293.698 595.642 294.631 595.71C293.697 595.644 292.755 595.638 291.836 595.444C291.374 595.362 290.908 595.304 290.45 595.202L289.082 594.878C287.259 594.437 285.467 593.878 283.689 593.282C280.135 592.081 276.642 590.707 273.172 589.282C266.233 586.429 259.414 583.289 252.494 580.397C245.525 577.605 238.814 574.213 232.205 570.663C225.599 567.102 219.128 563.286 212.821 559.216C206.526 555.129 200.389 550.787 194.568 546.045L192.391 544.26C191.674 543.654 190.981 543.021 190.274 542.403C189.574 541.779 188.861 541.167 188.169 540.534L186.123 538.6L184.076 536.669C183.398 536.02 182.747 535.343 182.082 534.682L180.095 532.687L178.182 530.622C175.622 527.879 173.234 524.964 171.141 521.849C169.031 518.741 167.351 515.361 165.96 511.878C164.563 508.396 163.278 504.869 161.746 501.445C160.259 497.999 158.459 494.701 156.637 491.423Z" fill="white"/>
</g>
</g>
<path d="M121.686 459.879C126.576 459.956 131.462 460.32 136.326 460.866C141.192 461.412 146.029 462.194 150.837 463.127C155.638 464.106 160.388 465.331 165.066 466.79C169.735 468.283 174.283 470.137 178.668 472.309C176.409 471.369 174.195 470.328 171.874 469.553C169.6 468.659 167.262 467.949 164.936 467.209C160.25 465.843 155.52 464.618 150.725 463.686C145.942 462.709 141.117 461.938 136.274 461.3C133.853 460.982 131.426 460.702 128.993 460.471C126.564 460.213 124.127 460.013 121.686 459.879Z" fill="white"/>
<path d="M262.987 533.763C263.781 534.078 264.508 534.54 265.182 535.062C265.86 535.584 266.469 536.192 267.023 536.849C267.571 537.511 268.037 538.246 268.4 539.025C268.778 539.799 268.996 540.647 269.089 541.489C268.69 540.731 268.334 539.994 267.879 539.309C267.429 538.626 266.968 537.953 266.435 537.333C265.401 536.065 264.23 534.917 262.987 533.763Z" fill="white"/>
<path d="M265.434 535.688C265.134 535.536 264.818 535.41 264.543 535.429C264.253 535.446 264.185 535.589 264.192 535.816C264.229 536.302 264.592 536.867 264.937 537.389C265.281 537.922 265.671 538.427 266.081 538.911C266.293 539.146 266.507 539.381 266.747 539.582C266.985 539.782 267.238 539.973 267.581 539.981C267.266 540.151 266.863 540.035 266.551 539.901C266.23 539.752 265.939 539.557 265.67 539.339C265.133 538.902 264.687 538.377 264.303 537.807C263.962 537.232 263.529 536.623 263.602 535.763C263.636 535.556 263.723 535.309 263.939 535.16C264.153 535.015 264.397 535.014 264.586 535.059C264.971 535.166 265.238 535.412 265.434 535.688Z" fill="white"/>
<path d="M262.463 534.862C262.563 535.491 262.785 536.08 263.05 536.64C263.325 537.198 263.65 537.728 264.019 538.227C264.377 538.735 264.803 539.193 265.224 539.657C265.656 540.113 266.122 540.535 266.583 540.979C266.307 540.819 266.044 540.64 265.773 540.468C265.523 540.27 265.265 540.078 265.022 539.868C264.542 539.443 264.091 538.977 263.712 538.452C263.336 537.927 263.003 537.364 262.782 536.754C262.562 536.149 262.406 535.504 262.463 534.862Z" fill="white"/>
<path d="M266.158 537.506C266.046 537.618 265.694 537.447 265.371 537.124C265.048 536.801 264.877 536.449 264.988 536.337C265.1 536.226 265.452 536.397 265.775 536.72C266.098 537.043 266.269 537.395 266.158 537.506Z" fill="white"/>
<path d="M365.119 121.243C367.458 113.8 375.257 111.222 386.529 112.438C397.801 113.656 412.617 115.755 417.802 116.155C422.988 116.557 427.524 114.019 434.799 115.814C442.075 117.611 449.742 120.503 459.982 122.052C463.595 122.599 468.508 123.21 474.327 124.331C480.413 122.164 493.182 117.351 500.624 112.658C510.645 106.339 521.196 94.5269 525.909 90.1594C530.621 85.7907 535.235 81.9836 536.737 83.4031C538.239 84.8236 534.863 91.5453 533.717 93.0768C532.571 94.6072 531.254 93.7971 530.348 94.7931C529.443 95.7891 530.19 99.001 529.185 100.557C528.181 102.114 527.519 100.071 526.156 101.178C524.792 102.286 526.129 104.64 525.017 105.984C523.903 107.328 522.343 107.067 521.396 107.471C520.449 107.874 519.718 112.174 518.728 113.155C517.738 114.137 517.818 112.031 516.521 112.766C515.223 113.499 514.367 118.356 512.436 119.363C510.507 120.37 509.157 119.747 506.552 120.444C503.947 121.139 503.779 124.576 501.947 125.022C500.667 125.336 495.554 127.135 489.794 128.224C497.079 130.534 505.01 133.775 513.157 138.462C535.428 151.273 553.91 171.221 565.178 186.815C576.445 202.409 581.276 219.179 591.107 221.94C600.939 224.699 614.393 212.437 632.563 215.384C650.732 218.332 650.689 229.621 650.368 230.335C650.048 231.048 649.292 230.915 647.176 227.461C645.06 224.007 634.065 222.325 626.455 231.253C618.846 240.18 611.851 245.623 606.011 245.62C606.011 245.62 610.02 257.109 607.144 267.899C604.268 278.689 598.894 289.294 600.018 296.169C601.142 303.042 600.4 303.937 598.398 302.045C596.396 300.151 587.323 283.147 589.611 266.861C591.898 250.577 588.385 237.377 582.018 229.322C575.651 221.267 562.131 206.303 538.731 203.204C515.331 200.106 511.863 208.736 490.057 208.743C472.094 208.747 457.656 201.489 457.656 201.489C457.656 201.489 462.522 213.643 469.183 218.926C475.844 224.208 479.713 221.039 481.517 218.533C483.321 216.028 484.494 219.315 481.727 223.962C478.962 228.609 473.289 234.284 466.649 234.398C460.01 234.51 455.355 227.783 453.454 226.422C451.553 225.06 450.011 226.072 448.545 225.556C447.079 225.042 448.405 221.937 447.259 220.708C446.112 219.479 443.917 220.889 442.67 219.129C441.423 217.369 442.286 214.684 441.037 212.929C439.789 211.176 437.537 211.805 436.579 210.609C435.621 209.415 436.584 207.273 435.148 205.479C433.712 203.685 430.778 202.655 429.707 199.898C428.636 197.142 426.782 192.194 422.401 188.34C418.018 184.487 400.766 168.607 393.248 162.661C385.731 156.714 370.393 143.226 368.321 139.523C366.247 135.819 362.901 128.297 365.119 121.243Z" fill="#A8B7DD"/>
<path d="M489.794 128.224C487.811 128.472 485.837 128.788 483.859 129.113C481.883 129.428 479.908 129.814 477.931 130.254C475.957 130.73 473.973 131.243 472.025 132.104C471.054 132.539 470.089 133.058 469.186 133.762C468.317 134.497 467.444 135.497 467.164 136.798C467.61 135.577 468.465 134.759 469.348 134.183C470.241 133.595 471.188 133.172 472.15 132.837C474.073 132.168 476.032 131.688 477.995 131.237C479.958 130.773 481.928 130.363 483.897 129.868L486.849 129.115C487.832 128.825 488.816 128.559 489.794 128.224Z" fill="white"/>
<path d="M475.984 133.153C475.194 133.173 474.4 133.355 473.616 133.607C472.831 133.861 472.052 134.212 471.311 134.697C470.574 135.191 469.861 135.787 469.255 136.552C468.658 137.328 468.18 138.247 467.902 139.238C468.325 138.322 468.838 137.51 469.444 136.824C470.064 136.159 470.743 135.607 471.456 135.14C472.166 134.661 472.918 134.31 473.672 133.972C474.43 133.65 475.201 133.377 475.984 133.153Z" fill="white"/>
<path d="M457.656 201.489C453.988 200.339 450.331 199.159 446.724 197.811C443.118 196.46 439.548 194.989 436.075 193.239C432.582 191.546 429.189 189.576 425.88 187.411C422.57 185.249 419.368 182.843 416.222 180.319C419.223 183.108 422.371 185.649 425.646 187.928C428.92 190.21 432.335 192.185 435.826 193.941C439.336 195.642 442.92 197.13 446.57 198.364C450.219 199.602 453.918 200.641 457.656 201.489Z" fill="white"/>
<path d="M493.361 208.671C497.615 207.848 501.846 206.624 506.036 205.115C510.228 203.614 514.374 201.825 518.513 200.028C522.652 198.245 526.796 196.432 531.005 195.167C535.198 193.917 539.523 193.29 543.606 194.277L544.184 194.418L543.782 193.897C537.942 186.344 531.607 179.469 524.963 173.112C518.29 166.808 511.273 161.048 503.801 156.277C496.316 151.512 488.294 148.135 480.209 145.134C472.101 142.176 463.807 139.903 455.439 138.044C451.248 137.141 447.037 136.34 442.805 135.667C438.579 134.975 434.308 134.485 430.068 133.957C427.971 133.642 425.923 132.973 423.896 132.27C421.865 131.576 419.865 130.761 417.869 129.935C413.882 128.267 409.942 126.439 406.033 124.529C402.127 122.611 398.24 120.636 394.416 118.498C390.557 116.378 386.394 115.147 382.159 114.479C380.039 114.159 377.888 113.985 375.718 114.13C373.544 114.229 371.333 115.143 369.428 116.726C367.527 118.298 365.937 120.693 365.262 123.454C364.536 126.201 364.626 129.101 365.138 131.74C364.644 129.093 364.575 126.195 365.316 123.472C366.004 120.735 367.594 118.383 369.482 116.847C371.378 115.301 373.563 114.424 375.71 114.35C377.865 114.23 380.003 114.429 382.111 114.77C386.317 115.491 390.451 116.76 394.273 118.865C398.096 121.022 401.98 123.015 405.885 124.951C409.791 126.878 413.729 128.723 417.719 130.411C419.716 131.246 421.719 132.072 423.757 132.778C425.792 133.491 427.842 134.171 429.981 134.505C434.239 135.051 438.483 135.554 442.706 136.262C446.929 136.953 451.129 137.768 455.309 138.686C463.657 140.573 471.923 142.884 480.005 145.854C488.084 148.817 496.087 152.151 503.549 156.863C511.005 161.583 518.019 167.3 524.695 173.562C531.339 179.874 537.687 186.721 543.525 194.221L543.701 193.841C539.55 192.853 535.177 193.512 530.964 194.783C526.731 196.06 522.592 197.927 518.46 199.757C514.33 201.599 510.196 203.43 506.015 204.977C501.836 206.53 497.612 207.8 493.361 208.671Z" fill="white"/>
<mask id="mask11_165_761" style="mask-type:luminance" maskUnits="userSpaceOnUse" x="354" y="112" width="199" height="103">
<path d="M552.25 145.304L367.124 112.662L354.96 181.651L540.085 214.293L552.25 145.304Z" fill="white"/>
</mask>
<g mask="url(#mask11_165_761)">
<mask id="mask12_165_761" style="mask-type:luminance" maskUnits="userSpaceOnUse" x="368" y="114" width="174" height="70">
<path d="M541.753 143.454L375.143 114.076L368.096 154.046L534.705 183.423L541.753 143.454Z" fill="white"/>
</mask>
<g mask="url(#mask12_165_761)">
<path d="M534.705 183.423C528.916 178.386 522.971 173.628 516.89 169.15C510.813 164.666 504.588 160.473 498.136 156.835C491.718 153.095 484.864 150.531 477.932 148.424C470.99 146.32 463.925 144.743 456.841 143.303C449.751 141.885 442.619 140.702 435.513 139.39C431.968 138.702 428.39 138.108 425.02 136.696C421.641 135.335 418.353 133.676 415.107 131.917C408.603 128.427 402.202 124.659 395.646 121.3C392.352 119.669 389.057 118.025 385.64 116.77C382.231 115.521 378.745 114.41 375.107 114.283C378.744 114.42 382.226 115.543 385.63 116.8C389.044 118.064 392.335 119.717 395.624 121.359C402.172 124.736 408.564 128.523 415.063 132.034C418.305 133.802 421.592 135.472 424.976 136.846C428.351 138.272 431.938 138.878 435.478 139.576C442.584 140.908 449.71 142.115 456.794 143.55C463.88 144.968 470.945 146.524 477.886 148.606C484.821 150.692 491.669 153.232 498.09 156.951C504.547 160.566 510.779 164.741 516.864 169.204C522.953 173.663 528.906 178.405 534.705 183.423Z" fill="white"/>
</g>
<mask id="mask13_165_761" style="mask-type:luminance" maskUnits="userSpaceOnUse" x="363" y="115" width="184" height="74">
<path d="M546.218 146.843L370.616 115.88L363.32 157.255L538.923 188.218L546.218 146.843Z" fill="white"/>
</mask>
<g mask="url(#mask13_165_761)">
<path d="M538.923 188.219C535.839 185.659 532.594 183.414 529.336 181.213C526.071 179.023 522.764 176.927 519.433 174.89C512.77 170.816 505.986 167.028 499.097 163.535C495.639 161.824 492.182 160.104 488.645 158.627C485.122 157.104 481.524 155.828 477.912 154.612C470.674 152.231 463.334 150.249 455.967 148.418C448.592 146.61 441.179 144.993 433.793 143.255C430.11 142.348 426.388 141.561 422.851 140.099C419.305 138.664 415.863 136.898 412.44 135.1C405.592 131.497 398.834 127.655 391.958 124.122C388.517 122.365 385.06 120.645 381.519 119.183C377.981 117.742 374.391 116.341 370.607 115.929C374.389 116.351 377.976 117.762 381.51 119.214C385.047 120.684 388.501 122.413 391.937 124.179C398.804 127.733 405.555 131.593 412.396 135.218C415.818 137.025 419.256 138.802 422.805 140.249C426.351 141.725 430.073 142.523 433.753 143.44C441.137 145.199 448.546 146.837 455.914 148.661C463.285 150.474 470.625 152.433 477.864 154.793C481.477 155.999 485.075 157.264 488.599 158.776C492.136 160.242 495.595 161.951 499.055 163.651C505.95 167.124 512.738 170.892 519.41 174.946C522.744 176.974 526.055 179.06 529.324 181.24C532.586 183.432 535.835 185.668 538.923 188.219Z" fill="white"/>
</g>
<mask id="mask14_165_761" style="mask-type:luminance" maskUnits="userSpaceOnUse" x="361" y="117" width="188" height="74">
<path d="M548.157 149.327L368.506 117.65L361.234 158.89L540.885 190.567L548.157 149.327Z" fill="white"/>
</mask>
<g mask="url(#mask14_165_761)">
<path d="M540.885 190.568C537.523 188.411 534.054 186.505 530.573 184.642C527.088 182.787 523.576 181.003 520.051 179.258C512.994 175.785 505.883 172.466 498.718 169.309C495.139 167.723 491.542 166.19 487.935 164.687C484.318 163.218 480.674 161.835 476.997 160.576C469.651 158.019 462.221 155.786 454.775 153.626L432.39 147.351C430.528 146.812 428.667 146.273 426.815 145.7C424.958 145.136 423.116 144.524 421.311 143.789C417.711 142.278 414.218 140.433 410.736 138.578C403.785 134.818 396.922 130.831 389.971 127.068C386.499 125.18 383.002 123.354 379.449 121.685C375.899 120.028 372.299 118.436 368.506 117.65C372.297 118.446 375.893 120.049 379.439 121.714C382.987 123.392 386.48 125.229 389.949 127.127C396.891 130.908 403.747 134.915 410.691 138.693C414.172 140.559 417.66 142.414 421.264 143.938C423.074 144.681 424.917 145.298 426.772 145.868C428.624 146.446 430.485 146.99 432.345 147.535L454.717 153.869C462.165 156.008 469.6 158.221 476.947 160.757C480.627 162.005 484.271 163.379 487.89 164.836C491.499 166.327 495.098 167.851 498.68 169.428C505.85 172.565 512.967 175.864 520.03 179.315C523.558 181.052 527.073 182.826 530.561 184.671C534.046 186.525 537.519 188.42 540.885 190.568Z" fill="white"/>
</g>
<mask id="mask15_165_761" style="mask-type:luminance" maskUnits="userSpaceOnUse" x="360" y="118" width="189" height="74">
<path d="M548.507 150.907L367.384 118.97L360.279 159.264L541.402 191.2L548.507 150.907Z" fill="white"/>
</mask>
<g mask="url(#mask15_165_761)">
<path d="M541.402 191.2C534.202 187.976 526.822 185.334 519.474 182.6L497.401 174.486C490.046 171.778 482.748 168.864 475.35 166.295C467.962 163.694 460.536 161.234 453.102 158.81C445.666 156.396 438.214 154.04 430.799 151.546C427.098 150.28 423.383 149.049 419.758 147.524C416.151 145.95 412.664 144.012 409.198 142.039C402.272 138.065 395.447 133.843 388.557 129.781C385.117 127.737 381.652 125.753 378.154 123.858C374.652 121.98 371.108 120.163 367.384 118.969C371.106 120.174 374.645 122.001 378.143 123.888C381.637 125.792 385.098 127.786 388.533 129.838C395.415 133.919 402.232 138.161 409.152 142.155C412.615 144.138 416.099 146.085 419.711 147.673C423.337 149.21 427.05 150.452 430.75 151.728C438.161 154.241 445.607 156.62 453.04 159.051C460.478 161.457 467.908 163.895 475.3 166.475C482.701 169.024 490.004 171.917 497.367 174.605L519.457 182.661C526.81 185.373 534.196 187.996 541.402 191.2Z" fill="white"/>
</g>
<mask id="mask16_165_761" style="mask-type:luminance" maskUnits="userSpaceOnUse" x="359" y="120" width="190" height="72">
<path d="M548.139 152.996L366.213 120.918L359.476 159.122L541.402 191.2L548.139 152.996Z" fill="white"/>
</mask>
<g mask="url(#mask16_165_761)">
<path d="M541.402 191.2C533.825 189.202 526.159 187.617 518.558 185.735C510.951 183.878 503.378 181.854 495.881 179.53C488.375 177.238 480.969 174.563 473.546 171.952L451.3 164.043C443.891 161.388 436.488 158.704 429.13 155.866C425.454 154.443 421.786 152.984 418.173 151.363C414.565 149.723 411.098 147.684 407.636 145.647C400.723 141.544 393.916 137.184 387.069 132.92C383.648 130.783 380.217 128.667 376.765 126.603C373.303 124.566 369.833 122.529 366.214 120.917C369.83 122.539 373.296 124.585 376.753 126.632C380.202 128.705 383.628 130.83 387.045 132.977C393.884 137.26 400.682 141.639 407.589 145.763C411.048 147.809 414.512 149.858 418.123 151.511C421.736 153.143 425.402 154.613 429.078 156.047C436.43 158.904 443.827 161.61 451.233 164.283L473.497 172.133C480.924 174.723 488.336 177.38 495.85 179.651C503.355 181.956 510.933 183.959 518.545 185.796C526.151 187.657 533.821 189.222 541.402 191.2Z" fill="white"/>
</g>
<mask id="mask17_165_761" style="mask-type:luminance" maskUnits="userSpaceOnUse" x="358" y="122" width="191" height="72">
<path d="M548.924 155.148L365.461 122.798L358.721 161.023L542.184 193.373L548.924 155.148Z" fill="white"/>
</mask>
<g mask="url(#mask17_165_761)">
<path d="M542.357 192.39C534.648 190.559 526.742 189.823 518.895 188.807C511.04 187.829 503.224 186.562 495.514 184.756C487.801 182.968 480.231 180.55 472.717 177.938C465.199 175.341 457.733 172.555 450.3 169.663C442.861 166.783 435.456 163.793 428.112 160.609C424.443 159.012 420.781 157.385 417.17 155.615C413.552 153.862 410.065 151.76 406.598 149.618C399.677 145.297 392.854 140.75 386.03 136.207C379.197 131.687 372.426 127.017 365.46 122.799C372.418 127.036 379.179 131.725 386.005 136.262C392.82 140.825 399.636 145.39 406.549 149.732C410.013 151.884 413.5 153.997 417.117 155.762C420.728 157.543 424.387 159.18 428.055 160.788C435.394 163.992 442.795 167.004 450.229 169.902C457.67 172.775 465.143 175.541 472.668 178.12C480.188 180.711 487.769 183.11 495.489 184.88C503.206 186.664 511.027 187.911 518.886 188.868C526.737 189.865 534.643 190.581 542.357 192.39Z" fill="white"/>
</g>
<mask id="mask18_165_761" style="mask-type:luminance" maskUnits="userSpaceOnUse" x="357" y="124" width="194" height="75">
<path d="M550.107 157.456L364.981 124.814L357.777 165.669L542.903 198.312L550.107 157.456Z" fill="white"/>
</mask>
<g mask="url(#mask18_165_761)">
<path d="M543.654 194.059C539.772 193.011 535.762 192.616 531.751 192.371C527.735 192.139 523.706 192.044 519.683 191.898C515.657 191.773 511.642 191.548 507.635 191.246C505.638 191.048 503.631 190.912 501.645 190.643L498.658 190.282L495.686 189.823C487.761 188.593 479.966 186.618 472.332 184.037C464.686 181.503 457.134 178.622 449.645 175.545C442.154 172.468 434.727 169.186 427.371 165.695C420.033 162.163 412.72 158.514 405.82 153.859C398.875 149.319 392.036 144.543 385.225 139.709C378.424 134.855 371.634 129.972 364.981 124.813C371.625 129.991 378.406 134.893 385.199 139.765C392.002 144.616 398.833 149.411 405.771 153.972C412.665 158.646 419.978 162.321 427.31 165.872C434.661 169.383 442.083 172.688 449.571 175.783C457.069 178.843 464.63 181.702 472.285 184.219C479.925 186.78 487.733 188.736 495.665 189.947L498.64 190.397L501.629 190.753C503.618 191.016 505.625 191.147 507.623 191.339C511.632 191.631 515.65 191.845 519.677 191.961C523.702 192.096 527.731 192.181 531.747 192.402C535.759 192.637 539.77 193.02 543.654 194.059Z" fill="white"/>
</g>
<mask id="mask19_165_761" style="mask-type:luminance" maskUnits="userSpaceOnUse" x="357" y="127" width="184" height="76">
<path d="M540.123 158.356L364.749 127.433L357.047 171.111L532.421 202.034L540.123 158.356Z" fill="white"/>
</mask>
<g mask="url(#mask19_165_761)">
<path d="M533.801 194.213C529.953 194.147 526.091 194.272 522.224 194.579C518.356 194.877 514.485 195.335 510.62 195.583C506.756 195.83 502.897 195.877 499.075 195.569C498.117 195.519 497.168 195.386 496.214 195.299C495.26 195.211 494.31 195.099 493.366 194.946L490.527 194.527L487.706 193.996C480.199 192.514 472.789 190.506 465.522 187.982C458.256 185.452 451.101 182.523 444.029 179.347C436.956 176.179 429.952 172.792 423.06 169.104C419.608 167.278 416.194 165.351 412.818 163.329C409.442 161.313 406.172 159.045 402.898 156.792C396.357 152.264 389.875 147.612 383.462 142.816C380.257 140.414 377.065 137.985 373.923 135.463C370.789 132.927 367.648 130.385 364.748 127.433C367.643 130.393 370.779 132.945 373.909 135.491C377.047 138.022 380.234 140.46 383.434 142.871C389.839 147.685 396.313 152.357 402.845 156.904C406.116 159.167 409.383 161.445 412.76 163.472C416.133 165.505 419.544 167.442 422.995 169.278C429.882 172.986 436.88 176.396 443.951 179.584C451.033 182.74 458.197 185.652 465.473 188.164C472.75 190.669 480.169 192.657 487.684 194.119L490.507 194.643L493.349 195.054C494.294 195.206 495.246 195.313 496.201 195.399C497.155 195.484 498.105 195.616 499.064 195.662C502.89 195.961 506.753 195.902 510.618 195.644C514.485 195.386 518.356 194.919 522.223 194.611C526.091 194.293 529.953 194.156 533.801 194.213Z" fill="white"/>
</g>
<mask id="mask20_165_761" style="mask-type:luminance" maskUnits="userSpaceOnUse" x="357" y="130" width="179" height="77">
<path d="M535.774 161.026L365.269 130.961L357.242 176.486L527.747 206.551L535.774 161.026Z" fill="white"/>
</mask>
<g mask="url(#mask20_165_761)">
<path d="M529.719 195.361C525.939 195.45 522.142 195.815 518.353 196.518C514.564 197.204 510.79 198.198 507.003 198.879C503.216 199.579 499.419 199.893 495.65 199.839L492.828 199.744C491.891 199.682 490.958 199.58 490.023 199.499C488.147 199.375 486.304 199.02 484.445 198.777C477.048 197.548 469.75 195.725 462.636 193.224C455.517 190.742 448.533 187.775 441.655 184.514C434.774 181.263 427.992 177.713 421.324 173.886C418 171.944 414.685 169.982 411.437 167.859C408.173 165.776 405.035 163.415 401.869 161.115C395.536 156.515 389.199 151.925 382.978 147.099C379.864 144.694 376.784 142.219 373.775 139.615C370.79 136.982 367.785 134.321 365.269 130.962C367.779 134.329 370.78 137 373.761 139.641C376.765 142.254 379.841 144.739 382.95 147.155C389.163 151.998 395.492 156.608 401.816 161.225C404.976 163.534 408.112 165.905 411.375 168.001C414.62 170.132 417.934 172.106 421.254 174.06C427.919 177.906 434.694 181.479 441.575 184.749C448.463 187.993 455.457 190.941 462.587 193.406C469.712 195.887 477.02 197.692 484.424 198.901C486.285 199.139 488.131 199.489 490.009 199.608C490.945 199.686 491.879 199.785 492.817 199.846L495.642 199.933C499.414 199.975 503.217 199.651 507.005 198.942C510.794 198.248 514.566 197.244 518.354 196.549C522.141 195.835 525.938 195.461 529.719 195.361Z" fill="white"/>
</g>
<mask id="mask21_165_761" style="mask-type:luminance" maskUnits="userSpaceOnUse" x="357" y="134" width="178" height="78">
<path d="M534.805 164.476L366.089 134.726L357.729 182.139L526.445 211.888L534.805 164.476Z" fill="white"/>
</mask>
<g mask="url(#mask21_165_761)">
<path d="M529.337 195.49C525.549 196.194 521.755 196.935 517.999 198.123C514.239 199.246 510.522 200.709 506.786 202.016C503.053 203.333 499.259 204.264 495.468 204.53C491.68 204.821 487.908 204.645 484.19 204.152L481.399 203.795L478.628 203.307C477.706 203.138 476.778 202.997 475.861 202.804L473.111 202.203L470.362 201.602C469.449 201.384 468.545 201.127 467.636 200.891C466.73 200.644 465.817 200.423 464.917 200.156L462.225 199.302C455.056 196.995 448.061 194.038 441.201 190.715C434.337 187.402 427.6 183.719 421.011 179.689C414.427 175.648 407.926 171.377 401.8 166.354C395.608 161.459 389.264 156.872 383.099 151.927C380.018 149.455 376.967 146.917 374.034 144.178C372.571 142.803 371.13 141.383 369.776 139.839L368.765 138.673C368.433 138.279 368.134 137.839 367.816 137.425C367.156 136.622 366.646 135.646 366.089 134.727C366.645 135.648 367.153 136.626 367.811 137.43C368.128 137.846 368.426 138.287 368.758 138.682L369.768 139.851C371.12 141.4 372.557 142.824 374.019 144.203C376.948 146.952 379.993 149.499 383.07 151.981C389.227 156.944 395.564 161.552 401.744 166.462C407.863 171.505 414.36 175.799 420.938 179.861C427.525 183.911 434.256 187.617 441.12 190.95C447.991 194.256 454.997 197.194 462.178 199.484L464.873 200.331C465.777 200.595 466.69 200.815 467.599 201.059C468.508 201.291 469.415 201.547 470.328 201.763L473.081 202.356L475.833 202.95C476.751 203.14 477.681 203.279 478.603 203.446L481.378 203.927L484.173 204.276C487.895 204.759 491.673 204.925 495.466 204.624C499.262 204.346 503.061 203.403 506.794 202.077C510.53 200.758 514.244 199.285 518.003 198.153C521.756 196.956 525.549 196.205 529.337 195.49Z" fill="white"/>
</g>
</g>
<path d="M575.089 206.791C572.411 201.752 569.489 196.947 566.422 192.309C563.354 187.67 560.099 183.249 556.731 178.978C553.326 174.752 549.736 170.775 545.985 167.059C542.209 163.382 538.188 160.115 533.981 157.274C535.995 158.881 538.072 160.36 539.976 162.163C541.958 163.821 543.818 165.694 545.695 167.53C549.371 171.327 552.949 175.283 556.31 179.541C559.703 183.751 562.942 188.167 566.077 192.71C567.644 194.981 569.181 197.289 570.678 199.642C572.198 201.97 573.67 204.351 575.089 206.791Z" fill="white"/>
<path d="M436.18 118.336C435.485 117.76 434.7 117.37 433.892 117.083C433.082 116.792 432.234 116.641 431.374 116.589C430.513 116.544 429.633 116.644 428.77 116.887C427.904 117.11 427.059 117.558 426.287 118.133C427.15 117.945 427.974 117.729 428.804 117.657C429.631 117.581 430.456 117.526 431.272 117.586C432.914 117.654 434.524 117.961 436.18 118.336Z" fill="white"/>
<path d="M433.219 117.319C433.51 117.511 433.787 117.74 433.918 118.041C434.058 118.358 433.972 118.543 433.773 118.717C433.336 119.065 432.657 119.137 432.024 119.194C431.383 119.26 430.741 119.257 430.106 119.214C429.792 119.18 429.476 119.145 429.175 119.055C428.876 118.965 428.576 118.854 428.387 118.502C428.409 118.967 428.724 119.295 429.006 119.513C429.305 119.729 429.628 119.878 429.959 119.984C430.62 120.196 431.31 120.242 432.004 120.189C432.681 120.086 433.434 120.052 434.134 119.289C434.293 119.089 434.458 118.801 434.471 118.457C434.481 118.118 434.352 117.863 434.212 117.702C433.915 117.385 433.561 117.304 433.219 117.319Z" fill="white"/>
<path d="M435.515 119.76C434.922 120.156 434.298 120.395 433.676 120.565C433.049 120.723 432.421 120.807 431.796 120.82C431.168 120.852 430.547 120.772 429.924 120.703C429.302 120.616 428.691 120.466 428.063 120.339C428.348 120.5 428.642 120.632 428.934 120.778C429.238 120.88 429.541 120.996 429.851 121.082C430.473 121.244 431.113 121.342 431.767 121.319C432.418 121.292 433.079 121.191 433.721 120.936C434.358 120.683 434.995 120.33 435.515 119.76Z" fill="white"/>
<path d="M431.272 118.014C431.236 118.22 431.571 118.451 432.021 118.53C432.471 118.61 432.864 118.507 432.901 118.302C432.937 118.097 432.602 117.866 432.152 117.787C431.702 117.707 431.308 117.809 431.272 118.014Z" fill="white"/>
<path d="M76.3859 393.834C69.0652 393.834 62.2542 392.629 55.9529 390.22C49.7442 387.718 44.3232 384.243 39.6899 379.795C35.1492 375.254 31.5815 370.019 28.9869 364.088C26.4849 358.065 25.2339 351.485 25.2339 344.35C25.2339 337.215 26.4849 330.682 28.9869 324.751C31.5815 318.728 35.1492 313.492 39.6899 309.044C44.3232 304.503 49.7442 301.028 55.9529 298.619C62.1615 296.117 68.9725 294.866 76.3859 294.866C83.7065 294.866 90.4712 296.117 96.6799 298.619C102.889 301.028 108.263 304.457 112.804 308.905C117.437 313.353 121.005 318.589 123.507 324.612C126.102 330.635 127.399 337.215 127.399 344.35C127.399 351.485 126.102 358.065 123.507 364.088C121.005 370.111 117.437 375.347 112.804 379.795C108.263 384.243 102.889 387.718 96.6799 390.22C90.4712 392.629 83.7065 393.834 76.3859 393.834ZM76.3859 384.66C82.2239 384.66 87.5985 383.687 92.5099 381.741C97.5139 379.702 101.823 376.876 105.437 373.262C109.144 369.555 112.016 365.293 114.055 360.474C116.094 355.563 117.113 350.188 117.113 344.35C117.113 338.512 116.094 333.184 114.055 328.365C112.016 323.454 109.144 319.191 105.437 315.577C101.823 311.87 97.5139 309.044 92.5099 307.098C87.5985 305.059 82.2239 304.04 76.3859 304.04C70.5479 304.04 65.1269 305.059 60.1229 307.098C55.1189 309.044 50.7635 311.87 47.0569 315.577C43.4429 319.191 40.5702 323.454 38.4389 328.365C36.4002 333.184 35.3809 338.512 35.3809 344.35C35.3809 350.095 36.4002 355.424 38.4389 360.335C40.5702 365.246 43.4429 369.555 47.0569 373.262C50.7635 376.876 55.1189 379.702 60.1229 381.741C65.1269 383.687 70.5479 384.66 76.3859 384.66ZM186.038 393.695C179.737 393.695 174.038 392.259 168.941 389.386C163.845 386.421 159.767 382.204 156.709 376.737C153.744 371.177 152.261 364.412 152.261 356.443C152.261 348.474 153.744 341.755 156.709 336.288C159.675 330.728 163.706 326.512 168.802 323.639C173.899 320.766 179.644 319.33 186.038 319.33C192.988 319.33 199.197 320.905 204.664 324.056C210.224 327.114 214.58 331.469 217.73 337.122C220.881 342.682 222.456 349.122 222.456 356.443C222.456 363.856 220.881 370.343 217.73 375.903C214.58 381.463 210.224 385.818 204.664 388.969C199.197 392.12 192.988 393.695 186.038 393.695ZM148.369 419.966V320.025H157.821V341.987L156.848 356.582L158.238 371.316V419.966H148.369ZM185.343 384.938C190.533 384.938 195.166 383.78 199.243 381.463C203.321 379.054 206.564 375.718 208.973 371.455C211.383 367.1 212.587 362.096 212.587 356.443C212.587 350.79 211.383 345.833 208.973 341.57C206.564 337.307 203.321 333.971 199.243 331.562C195.166 329.153 190.533 327.948 185.343 327.948C180.154 327.948 175.474 329.153 171.304 331.562C167.227 333.971 163.984 337.307 161.574 341.57C159.258 345.833 158.099 350.79 158.099 356.443C158.099 362.096 159.258 367.1 161.574 371.455C163.984 375.718 167.227 379.054 171.304 381.463C175.474 383.78 180.154 384.938 185.343 384.938ZM273.571 393.695C265.973 393.695 259.301 392.12 253.555 388.969C247.81 385.726 243.316 381.324 240.072 375.764C236.829 370.111 235.207 363.671 235.207 356.443C235.207 349.215 236.736 342.821 239.794 337.261C242.945 331.701 247.208 327.346 252.582 324.195C258.05 320.952 264.166 319.33 270.93 319.33C277.788 319.33 283.857 320.905 289.139 324.056C294.514 327.114 298.73 331.469 301.788 337.122C304.846 342.682 306.375 349.122 306.375 356.443C306.375 356.906 306.329 357.416 306.236 357.972C306.236 358.435 306.236 358.945 306.236 359.501H242.713V352.134H300.954L297.062 355.053C297.062 349.771 295.904 345.091 293.587 341.014C291.363 336.844 288.305 333.601 284.413 331.284C280.521 328.967 276.027 327.809 270.93 327.809C265.926 327.809 261.432 328.967 257.447 331.284C253.463 333.601 250.358 336.844 248.134 341.014C245.91 345.184 244.798 349.956 244.798 355.331V356.86C244.798 362.42 246.003 367.331 248.412 371.594C250.914 375.764 254.343 379.054 258.698 381.463C263.146 383.78 268.197 384.938 273.849 384.938C278.297 384.938 282.421 384.15 286.22 382.575C290.112 381 293.448 378.59 296.228 375.347L301.788 381.741C298.545 385.633 294.468 388.598 289.556 390.637C284.738 392.676 279.409 393.695 273.571 393.695ZM363.715 319.33C369.646 319.33 374.835 320.488 379.283 322.805C383.824 325.029 387.345 328.458 389.847 333.091C392.442 337.724 393.739 343.562 393.739 350.605V393H383.87V351.578C383.87 343.887 381.924 338.095 378.032 334.203C374.233 330.218 368.858 328.226 361.908 328.226C356.719 328.226 352.178 329.292 348.286 331.423C344.487 333.462 341.521 336.473 339.39 340.458C337.351 344.35 336.332 349.076 336.332 354.636V393H326.463V320.025H335.915V340.041L334.386 336.288C336.703 331.006 340.409 326.882 345.506 323.917C350.603 320.859 356.672 319.33 363.715 319.33ZM449.309 393.834C442.081 393.834 435.131 392.676 428.459 390.359C421.879 387.95 416.783 384.892 413.169 381.185L417.2 373.262C420.628 376.598 425.215 379.424 430.961 381.741C436.799 383.965 442.915 385.077 449.309 385.077C455.425 385.077 460.382 384.336 464.182 382.853C468.074 381.278 470.9 379.193 472.661 376.598C474.514 374.003 475.441 371.131 475.441 367.98C475.441 364.181 474.329 361.123 472.105 358.806C469.973 356.489 467.147 354.682 463.626 353.385C460.104 351.995 456.212 350.79 451.95 349.771C447.687 348.752 443.424 347.686 439.162 346.574C434.899 345.369 430.961 343.794 427.347 341.848C423.825 339.902 420.953 337.354 418.729 334.203C416.597 330.96 415.532 326.743 415.532 321.554C415.532 316.735 416.783 312.334 419.285 308.349C421.879 304.272 425.818 301.028 431.1 298.619C436.382 296.117 443.146 294.866 451.394 294.866C456.861 294.866 462.282 295.654 467.657 297.229C473.031 298.712 477.665 300.797 481.557 303.484L478.082 311.685C473.912 308.905 469.464 306.866 464.738 305.569C460.104 304.272 455.61 303.623 451.255 303.623C445.417 303.623 440.598 304.411 436.799 305.986C432.999 307.561 430.173 309.693 428.32 312.38C426.559 314.975 425.679 317.94 425.679 321.276C425.679 325.075 426.744 328.133 428.876 330.45C431.1 332.767 433.972 334.574 437.494 335.871C441.108 337.168 445.046 338.327 449.309 339.346C453.571 340.365 457.788 341.477 461.958 342.682C466.22 343.887 470.112 345.462 473.634 347.408C477.248 349.261 480.12 351.763 482.252 354.914C484.476 358.065 485.588 362.188 485.588 367.285C485.588 372.011 484.29 376.413 481.696 380.49C479.101 384.475 475.116 387.718 469.742 390.22C464.46 392.629 457.649 393.834 449.309 393.834ZM536.911 393.695C529.313 393.695 522.641 392.12 516.895 388.969C511.15 385.726 506.656 381.324 503.412 375.764C500.169 370.111 498.547 363.671 498.547 356.443C498.547 349.215 500.076 342.821 503.134 337.261C506.285 331.701 510.548 327.346 515.922 324.195C521.39 320.952 527.506 319.33 534.27 319.33C541.128 319.33 547.197 320.905 552.479 324.056C557.854 327.114 562.07 331.469 565.128 337.122C568.186 342.682 569.715 349.122 569.715 356.443C569.715 356.906 569.669 357.416 569.576 357.972C569.576 358.435 569.576 358.945 569.576 359.501H506.053V352.134H564.294L560.402 355.053C560.402 349.771 559.244 345.091 556.927 341.014C554.703 336.844 551.645 333.601 547.753 331.284C543.861 328.967 539.367 327.809 534.27 327.809C529.266 327.809 524.772 328.967 520.787 331.284C516.803 333.601 513.698 336.844 511.474 341.014C509.25 345.184 508.138 349.956 508.138 355.331V356.86C508.138 362.42 509.343 367.331 511.752 371.594C514.254 375.764 517.683 379.054 522.038 381.463C526.486 383.78 531.537 384.938 537.189 384.938C541.637 384.938 545.761 384.15 549.56 382.575C553.452 381 556.788 378.59 559.568 375.347L565.128 381.741C561.885 385.633 557.808 388.598 552.896 390.637C548.078 392.676 542.749 393.695 536.911 393.695ZM633.498 393V376.876L633.081 374.235V347.269C633.081 341.06 631.32 336.288 627.799 332.952C624.37 329.616 619.227 327.948 612.37 327.948C607.644 327.948 603.15 328.736 598.887 330.311C594.624 331.886 591.01 333.971 588.045 336.566L583.597 329.199C587.304 326.048 591.752 323.639 596.941 321.971C602.13 320.21 607.598 319.33 613.343 319.33C622.795 319.33 630.069 321.693 635.166 326.419C640.355 331.052 642.95 338.141 642.95 347.686V393H633.498ZM608.339 393.695C602.872 393.695 598.099 392.815 594.022 391.054C590.037 389.201 586.979 386.699 584.848 383.548C582.717 380.305 581.651 376.598 581.651 372.428C581.651 368.629 582.531 365.2 584.292 362.142C586.145 358.991 589.111 356.489 593.188 354.636C597.358 352.69 602.918 351.717 609.868 351.717H635.027V359.084H610.146C603.103 359.084 598.192 360.335 595.412 362.837C592.725 365.339 591.381 368.443 591.381 372.15C591.381 376.32 593.003 379.656 596.246 382.158C599.489 384.66 604.03 385.911 609.868 385.911C615.428 385.911 620.2 384.66 624.185 382.158C628.262 379.563 631.228 375.857 633.081 371.038L635.305 377.849C633.452 382.668 630.208 386.513 625.575 389.386C621.034 392.259 615.289 393.695 608.339 393.695Z" fill="#A8B7DD"/>
</svg>
